<svg width="98" height="17" viewBox="0 0 98 17" fill="none" xmlns="http://www.w3.org/2000/svg">
<path d="M7.53711 0.68355L5.61536 5.36138H0.917758C0.277201 5.36138 -0.470125 6.23167 0.38394 6.99319L4.12069 10.2568L2.51924 15.1522C2.30574 15.6961 2.7328 16.6752 3.9072 16.1313L9.13862 13.4116L13.0889 16.0225C13.5159 16.3488 14.37 16.1313 14.1565 15.3698L12.8753 9.93042L16.5053 7.21075C16.9324 6.88439 17.4662 6.0141 16.5052 5.79653L11.1671 4.92623L9.13862 0.68355C8.45533 -0.534862 7.75062 0.13961 7.53711 0.68355Z" fill="#F2B71F"/>
<path d="M10.4198 1.37347C10.9536 2.67892 11.8077 4.74587 12.0212 5.07223C12.2775 5.15926 13.6867 5.39858 14.7971 5.61616C18.0427 6.24712 18.1281 6.57348 15.4377 8.5534C14.3914 9.33667 13.5159 10.1199 13.5159 10.294C13.5159 10.468 13.7939 11.6184 14.0928 12.7281C14.3917 13.8377 14.5836 14.9718 14.5836 15.3199C14.5836 16.3425 13.6444 16.2092 11.5305 14.795C10.5483 14.1423 9.65108 13.5576 9.52296 13.5576C9.3735 13.5576 8.19945 14.2728 6.83287 15.0126C4.37731 16.2963 3.48014 16.3643 3.48014 15.6245C3.48014 15.4722 3.86449 14.2321 4.33425 12.8831L5.12466 10.4435L4.6976 10.1172C4.44137 9.87784 3.56591 9.24688 2.66909 8.48537C1.77228 7.74562 0.960873 7.07114 0.960873 6.46469C0.982226 5.79022 1.34487 5.65967 3.1812 5.50737L5.0816 5.35507L3.30932 5.31155C1.15269 5.2898 0.640582 5.72268 0.640582 6.46469C0.640582 7.05214 0.917813 7.3785 1.83598 8.2488C2.43386 8.858 3.28797 9.59775 3.71502 9.92412L4.50507 10.5116L3.67232 12.8178C2.71144 15.4722 2.64738 16.212 3.30932 16.6907C4.05666 17.2346 4.54778 17.1258 7.00334 15.8421C8.28451 15.1894 9.4162 14.6455 9.54432 14.6455C9.67243 14.6455 10.3557 15.0371 11.0604 15.5158C12.8753 16.7342 14.0284 17.1693 14.6903 16.8647C15.7153 16.3861 15.758 15.1894 14.8184 11.9693L14.3914 10.4898L16.0355 9.16261C17.9573 7.61783 18 7.57432 18 6.68227C18 5.85549 17.637 5.52913 16.6761 5.39858C16.2918 5.33331 15.1174 5.18101 14.0925 5.05046L12.2134 4.81113L11.2525 2.87473C10.3344 1.00359 10.0995 0.372635 10.4198 1.37347Z" fill="black"/>
<path d="M27.5371 0.68355L25.6154 5.36138H20.9178C20.2772 5.36138 19.5299 6.23167 20.3839 6.99319L24.1207 10.2568L22.5192 15.1522C22.3057 15.6961 22.7328 16.6752 23.9072 16.1313L29.1386 13.4116L33.0889 16.0225C33.5159 16.3488 34.37 16.1313 34.1565 15.3698L32.8753 9.93042L36.5053 7.21075C36.9324 6.88439 37.4662 6.0141 36.5052 5.79653L31.1671 4.92623L29.1386 0.68355C28.4553 -0.534862 27.7506 0.13961 27.5371 0.68355Z" fill="#F2B71F"/>
<path d="M30.4198 1.37347C30.9536 2.67892 31.8077 4.74587 32.0212 5.07223C32.2775 5.15926 33.6867 5.39858 34.7971 5.61616C38.0427 6.24712 38.1281 6.57348 35.4377 8.5534C34.3914 9.33667 33.5159 10.1199 33.5159 10.294C33.5159 10.468 33.7939 11.6184 34.0928 12.7281C34.3917 13.8377 34.5836 14.9718 34.5836 15.3199C34.5836 16.3425 33.6444 16.2092 31.5305 14.795C30.5483 14.1423 29.6511 13.5576 29.523 13.5576C29.3735 13.5576 28.1994 14.2728 26.8329 15.0126C24.3773 16.2963 23.4801 16.3643 23.4801 15.6245C23.4801 15.4722 23.8645 14.2321 24.3343 12.8831L25.1247 10.4435L24.6976 10.1172C24.4414 9.87784 23.5659 9.24688 22.6691 8.48537C21.7723 7.74562 20.9609 7.07114 20.9609 6.46469C20.9822 5.79022 21.3449 5.65967 23.1812 5.50737L25.0816 5.35507L23.3093 5.31155C21.1527 5.2898 20.6406 5.72268 20.6406 6.46469C20.6406 7.05214 20.9178 7.3785 21.836 8.2488C22.4339 8.858 23.288 9.59775 23.715 9.92412L24.5051 10.5116L23.6723 12.8178C22.7114 15.4722 22.6474 16.212 23.3093 16.6907C24.0567 17.2346 24.5478 17.1258 27.0033 15.8421C28.2845 15.1894 29.4162 14.6455 29.5443 14.6455C29.6724 14.6455 30.3557 15.0371 31.0604 15.5158C32.8753 16.7342 34.0284 17.1693 34.6903 16.8647C35.7153 16.3861 35.758 15.1894 34.8184 11.9693L34.3914 10.4898L36.0355 9.16261C37.9573 7.61783 38 7.57432 38 6.68227C38 5.85549 37.637 5.52913 36.6761 5.39858C36.2918 5.33331 35.1174 5.18101 34.0925 5.05046L32.2134 4.81113L31.2525 2.87473C30.3344 1.00359 30.0995 0.372635 30.4198 1.37347Z" fill="black"/>
<path d="M47.5371 0.68355L45.6154 5.36138H40.9178C40.2772 5.36138 39.5299 6.23167 40.3839 6.99319L44.1207 10.2568L42.5192 15.1522C42.3057 15.6961 42.7328 16.6752 43.9072 16.1313L49.1386 13.4116L53.0889 16.0225C53.5159 16.3488 54.37 16.1313 54.1565 15.3698L52.8753 9.93042L56.5053 7.21075C56.9324 6.88439 57.4662 6.0141 56.5052 5.79653L51.1671 4.92623L49.1386 0.68355C48.4553 -0.534862 47.7506 0.13961 47.5371 0.68355Z" fill="#F2B71F"/>
<path d="M50.4198 1.37347C50.9536 2.67892 51.8077 4.74587 52.0212 5.07223C52.2775 5.15926 53.6867 5.39858 54.7971 5.61616C58.0427 6.24712 58.1281 6.57348 55.4377 8.5534C54.3914 9.33667 53.5159 10.1199 53.5159 10.294C53.5159 10.468 53.7939 11.6184 54.0928 12.7281C54.3917 13.8377 54.5836 14.9718 54.5836 15.3199C54.5836 16.3425 53.6444 16.2092 51.5305 14.795C50.5483 14.1423 49.6511 13.5576 49.523 13.5576C49.3735 13.5576 48.1994 14.2728 46.8329 15.0126C44.3773 16.2963 43.4801 16.3643 43.4801 15.6245C43.4801 15.4722 43.8645 14.2321 44.3343 12.8831L45.1247 10.4435L44.6976 10.1172C44.4414 9.87784 43.5659 9.24688 42.6691 8.48537C41.7723 7.74562 40.9609 7.07114 40.9609 6.46469C40.9822 5.79022 41.3449 5.65967 43.1812 5.50737L45.0816 5.35507L43.3093 5.31155C41.1527 5.2898 40.6406 5.72268 40.6406 6.46469C40.6406 7.05214 40.9178 7.3785 41.836 8.2488C42.4339 8.858 43.288 9.59775 43.715 9.92412L44.5051 10.5116L43.6723 12.8178C42.7114 15.4722 42.6474 16.212 43.3093 16.6907C44.0567 17.2346 44.5478 17.1258 47.0033 15.8421C48.2845 15.1894 49.4162 14.6455 49.5443 14.6455C49.6724 14.6455 50.3557 15.0371 51.0604 15.5158C52.8753 16.7342 54.0284 17.1693 54.6903 16.8647C55.7153 16.3861 55.758 15.1894 54.8184 11.9693L54.3914 10.4898L56.0355 9.16261C57.9573 7.61783 58 7.57432 58 6.68227C58 5.85549 57.637 5.52913 56.6761 5.39858C56.2918 5.33331 55.1174 5.18101 54.0925 5.05046L52.2134 4.81113L51.2525 2.87473C50.3344 1.00359 50.0995 0.372635 50.4198 1.37347Z" fill="black"/>
<path d="M90.4198 1.37347C90.9536 2.67892 91.8077 4.74587 92.0212 5.07223C92.2775 5.15926 93.6867 5.39858 94.7971 5.61616C98.0427 6.24712 98.1281 6.57348 95.4377 8.5534C94.3914 9.33667 93.5159 10.1199 93.5159 10.294C93.5159 10.468 93.7939 11.6184 94.0928 12.7281C94.3917 13.8377 94.5836 14.9718 94.5836 15.3199C94.5836 16.3425 93.6444 16.2092 91.5305 14.795C90.5483 14.1423 89.6511 13.5576 89.523 13.5576C89.3735 13.5576 88.1994 14.2728 86.8329 15.0126C84.3773 16.2963 83.4801 16.3643 83.4801 15.6245C83.4801 15.4722 83.8645 14.2321 84.3343 12.8831L85.1247 10.4435L84.6976 10.1172C84.4414 9.87784 83.5659 9.24688 82.6691 8.48537C81.7723 7.74562 80.9609 7.07114 80.9609 6.46469C80.9822 5.79022 81.3449 5.65967 83.1812 5.50737L85.0816 5.35507L83.3093 5.31155C81.1527 5.2898 80.6406 5.72268 80.6406 6.46469C80.6406 7.05214 80.9178 7.3785 81.836 8.2488C82.4339 8.858 83.288 9.59775 83.715 9.92412L84.5051 10.5116L83.6723 12.8178C82.7114 15.4722 82.6474 16.212 83.3093 16.6907C84.0567 17.2346 84.5478 17.1258 87.0033 15.8421C88.2845 15.1894 89.4162 14.6455 89.5443 14.6455C89.6724 14.6455 90.3557 15.0371 91.0604 15.5158C92.8753 16.7342 94.0284 17.1693 94.6903 16.8647C95.7153 16.3861 95.758 15.1894 94.8184 11.9693L94.3914 10.4898L96.0355 9.16261C97.9573 7.61783 98 7.57432 98 6.68227C98 5.85549 97.637 5.52913 96.6761 5.39858C96.2918 5.33331 95.1174 5.18101 94.0925 5.05046L92.2134 4.81113L91.2525 2.87473C90.3344 1.00359 90.0995 0.372635 90.4198 1.37347Z" fill="black"/>
<path d="M70.4198 1.37347C70.9536 2.67892 71.8077 4.74587 72.0212 5.07223C72.2775 5.15926 73.6867 5.39858 74.7971 5.61616C78.0427 6.24712 78.1281 6.57348 75.4377 8.5534C74.3914 9.33667 73.5159 10.1199 73.5159 10.294C73.5159 10.468 73.7939 11.6184 74.0928 12.7281C74.3917 13.8377 74.5836 14.9718 74.5836 15.3199C74.5836 16.3425 73.6444 16.2092 71.5305 14.795C70.5483 14.1423 69.6511 13.5576 69.523 13.5576C69.3735 13.5576 68.1994 14.2728 66.8329 15.0126C64.3773 16.2963 63.4801 16.3643 63.4801 15.6245C63.4801 15.4722 63.8645 14.2321 64.3343 12.8831L65.1247 10.4435L64.6976 10.1172C64.4414 9.87784 63.5659 9.24688 62.6691 8.48537C61.7723 7.74562 60.9609 7.07114 60.9609 6.46469C60.9822 5.79022 61.3449 5.65967 63.1812 5.50737L65.0816 5.35507L63.3093 5.31155C61.1527 5.2898 60.6406 5.72268 60.6406 6.46469C60.6406 7.05214 60.9178 7.3785 61.836 8.2488C62.4339 8.858 63.288 9.59775 63.715 9.92412L64.5051 10.5116L63.6723 12.8178C62.7114 15.4722 62.6474 16.212 63.3093 16.6907C64.0567 17.2346 64.5478 17.1258 67.0033 15.8421C68.2845 15.1894 69.4162 14.6455 69.5443 14.6455C69.6724 14.6455 70.3557 15.0371 71.0604 15.5158C72.8753 16.7342 74.0284 17.1693 74.6903 16.8647C75.7153 16.3861 75.758 15.1894 74.8184 11.9693L74.3914 10.4898L76.0355 9.16261C77.9573 7.61783 78 7.57432 78 6.68227C78 5.85549 77.637 5.52913 76.6761 5.39858C76.2918 5.33331 75.1174 5.18101 74.0925 5.05046L72.2134 4.81113L71.2525 2.87473C70.3344 1.00359 70.0995 0.372635 70.4198 1.37347Z" fill="black"/>
</svg>
