<svg width="100" height="100" viewBox="0 0 100 100" fill="none" xmlns="http://www.w3.org/2000/svg">
<path d="M74.7708 22.2C66.7558 14.094 56.4448 11.58 46.1058 13.137C34.7208 13.544 24.0768 19.646 18.0298 29.51C11.2848 40.513 11.3768 56.142 17.6538 67.37C24.2238 79.122 39.5398 85.811 52.7528 84.297C66.6798 82.701 78.0048 73.106 82.4168 59.904C86.5368 47.575 84.1038 31.638 74.7708 22.2Z" fill="#F871A0"/>
<path d="M32.3631 20.026C32.3631 20.026 31.7371 20.418 30.5521 21.158C30.2541 21.345 29.9211 21.554 29.5551 21.784C29.1881 22.015 28.8351 22.333 28.4251 22.643C27.6321 23.293 26.6391 23.965 25.7161 24.937C25.2351 25.404 24.7271 25.897 24.1931 26.415C23.6871 26.959 23.2021 27.573 22.6701 28.193C22.4061 28.506 22.1371 28.826 21.8621 29.152C21.5991 29.488 21.3671 29.856 21.1101 30.218C20.6191 30.956 20.0521 31.692 19.5691 32.517C17.5661 35.778 15.8281 39.857 14.8051 44.604C13.7981 49.342 13.5621 54.792 14.7391 60.449C14.9231 61.146 15.1091 61.849 15.2961 62.558C15.5001 63.262 15.6331 63.997 15.9301 64.684C16.1961 65.382 16.4631 66.086 16.7331 66.795C16.8761 67.146 16.9891 67.513 17.1581 67.856L17.6781 68.883C18.9471 71.681 20.8001 74.393 23.0401 76.779C27.5371 81.57 33.6211 85.208 40.4501 87.181C43.8671 88.163 47.4841 88.726 51.1861 88.727C54.9051 88.726 58.6191 88.126 62.2441 87.046C69.5041 84.898 75.9341 80.582 80.4361 75.002C82.6921 72.218 84.4661 69.128 85.7151 65.923C86.9681 62.718 87.7091 59.43 88.0621 56.196C88.7571 49.721 87.9001 43.46 85.9001 38.059C84.8991 35.36 83.6731 32.842 82.1761 30.623C80.6821 28.409 78.9971 26.443 77.2411 24.777C75.4691 23.116 73.6361 21.699 71.8131 20.502C69.9881 19.304 68.1411 18.387 66.3891 17.615C62.8441 16.142 59.5941 15.444 56.9301 15.18C54.2591 14.915 52.1811 15.063 50.7861 15.174C49.4011 15.361 48.6691 15.459 48.6691 15.459C48.6691 15.459 49.4051 15.411 50.7961 15.32C52.1901 15.302 54.2561 15.289 56.8611 15.708C59.4601 16.124 62.5901 16.991 65.9431 18.597C67.5991 19.436 69.3331 20.409 71.0311 21.648C72.7271 22.885 74.4181 24.326 76.0411 25.989C77.6581 27.67 79.1441 29.57 80.4681 31.708C81.7901 33.847 82.8471 36.257 83.6961 38.821C85.3931 43.952 86.0061 49.851 85.2041 55.851C84.4191 61.846 82.1091 67.941 77.9121 72.931C73.7621 77.93 67.9051 81.814 61.2561 83.782C57.9401 84.771 54.5121 85.333 51.1731 85.355C47.8161 85.378 44.4901 84.9 41.3311 84.039C35.0121 82.31 29.3271 79.055 25.1171 74.788C23.0101 72.647 21.2891 70.293 20.0171 67.703L19.5011 66.763C19.3331 66.449 19.2201 66.111 19.0771 65.789C18.8041 65.137 18.5331 64.489 18.2641 63.847C17.9611 63.216 17.8201 62.534 17.6051 61.882C17.4061 61.225 17.2081 60.573 17.0111 59.926C15.7191 54.666 15.7211 49.496 16.4811 44.922C17.2541 40.341 18.7291 36.32 20.5061 33.053C20.9321 32.227 21.4451 31.486 21.8831 30.739C22.1141 30.373 22.3211 29.999 22.5581 29.657C22.8081 29.324 23.0531 28.998 23.2931 28.679C23.7791 28.045 24.2191 27.415 24.6841 26.852C25.1771 26.313 25.6461 25.8 26.0911 25.314C26.9431 24.299 27.8761 23.582 28.6221 22.887C29.0081 22.555 29.3391 22.215 29.6871 21.963C30.0351 21.711 30.3511 21.483 30.6341 21.278C31.7661 20.459 32.3631 20.026 32.3631 20.026Z" fill="black"/>
<path d="M53.9858 56.963C54.0998 54.088 54.1208 51.209 54.0148 48.322C53.8858 44.812 50.5498 43.6 47.9768 44.459C46.0718 44.841 44.4158 46.345 44.4648 48.915C44.5758 54.7 44.5158 60.48 44.2848 66.262C44.0898 71.136 51.9248 71.986 53.0608 67.513C53.6778 66.779 54.0858 65.82 54.0968 64.616C54.1208 62.061 54.0808 59.511 53.9858 56.963Z" fill="#FEE7EF"/>
<path d="M49.9946 39.358C50.9006 39.025 51.6346 38.475 52.1636 37.789C52.7006 37.503 53.1956 37.121 53.6336 36.647C54.8056 35.377 55.1856 33.255 54.5486 31.652C53.8676 29.939 52.5306 28.619 50.6976 28.212C49.2526 27.891 47.7176 28.216 46.5056 29.053C45.2646 29.909 44.3486 31.285 44.0766 32.773C43.8486 34.019 44.0166 35.218 44.3446 36.428C44.9596 38.7 47.7806 40.171 49.9946 39.358Z" fill="#FEE7EF"/>
</svg>
