<svg width="100" height="100" viewBox="0 0 100 100" fill="none" xmlns="http://www.w3.org/2000/svg">
<path d="M90.1868 72.9414C90.2948 79.8126 74.2667 85.6363 54.3869 85.9489C34.5071 86.2616 18.3037 80.9449 18.1957 74.0737C18.0876 67.2025 34.1158 61.3788 53.9955 61.0662C73.8753 60.7535 90.0787 66.0702 90.1868 72.9414Z" fill="#D4D4D8"/>
<path d="M33.5003 37C34.9999 48 39.4999 57.5 53.0002 76C68.5002 56.5 72.7846 49.5195 73.5 37C74.5 19.5 59.5 15 53.0007 15C43.0006 15 31.8064 24.575 33.5003 37Z" fill="#F871A0"/>
<path d="M43.5 40C40.3 34.4 44.8334 30.3333 47.5 29C50.5 27.6667 57 26.2 59 31C61 35.8 57.8333 39.6667 56 41C53.1667 43 46.7 45.6 43.5 40Z" fill="#FEE7EF"/>
<path d="M28.6553 49.6427C21.7553 35.0427 26.3553 19.9427 39.1553 14.1427C45 11.9685 58.1553 11.7427 66.1553 24.1427C68.6235 27.9685 71.4553 39.6427 66.6553 49.6427C66 51.9685 59.5 61.4685 61 58.4685C66.5 49.4685 66.1691 47.1982 66.6553 42.9685C66.9886 40.0685 67.5 35.4685 65 27.9685C61 19.4685 55 15.4685 44.4553 16.1427C39.9972 16.4278 34.0553 20.5427 30.7553 27.0427C28.0553 32.5427 28.9553 42.2427 33.1553 50.4427C36.7553 57.6427 39.5 59.9685 32.8553 60.1427C28.6913 60.2519 19.0559 63.6427 16.1559 66.6427C10.3559 72.3427 13.5559 80.0427 23.6559 83.1427C35.2559 86.7427 59.9553 85.5427 74.1553 81.1427C81.2553 78.9427 81.6553 78.7427 78.1553 80.6427C76.7553 81.3427 71.8553 83.0427 67.1553 84.2427C60.0553 86.2427 56.0553 87.0427 42.6553 87.1427C24.9553 87.1427 19.3561 85.9427 14.1561 81.6427C10.2561 78.3427 8.75569 71.8427 11.1557 67.1427C13.0557 63.4427 19.8553 59.7427 26.7553 58.0427C29.5553 57.3427 31.8553 56.6427 32.0553 56.5427C32.1553 56.5427 30.3553 53.4427 28.6553 49.6427Z" fill="black"/>
</svg>
