<svg width="50" height="50" viewBox="0 0 100 100" fill="none" xmlns="http://www.w3.org/2000/svg">
<path d="M21 20C21 14.4772 25.4772 10 31 10H64C69.5229 10 74 14.4772 74 20V74C74 79.5229 69.5228 84 64 84H31C25.4772 84 21 79.5229 21 74V20Z" fill="#FEE7EF"/>
<path d="M61.8746 41.896H39.8746C33.3751 41.896 33.375 54.896 39.8746 54.896H61.8746V62.896C61.8746 64.2294 62.9746 66.096 67.3746 62.896L82.8747 50.896C85.3747 48.896 85.171 47.396 82.8747 45.396L67.3747 32.896C63.3747 29.396 61.8746 31.5627 61.8746 32.896V41.896Z" fill="#FAA0BF"/>
<path d="M15.7139 48.9971C15.7139 13.8298 15.9089 13.044 25.3697 10.097C28.0032 9.31111 54.2398 9.99873 63.5055 11.0793C68.0896 11.5705 69.065 12.0616 71.0157 15.0086C72.3811 17.0715 73.2589 19.7238 73.1614 21.8849C73.0639 25.4213 73.0639 25.4213 72.1861 21.0008L72.1669 20.9052C70.6259 13.2404 70.6258 13.2396 47.1198 13.0439C24.4919 12.9457 22.5412 13.3386 20.5906 18.6432C20.0054 20.0185 19.6152 33.4763 19.6152 48.5059V75.9129C19.5 79 20.5 81.4139 24.2969 81.4139L42.6333 81.7086C62.3351 82.1015 67.602 81.3157 69.4551 77.7793C70.0403 76.6987 70.8206 72.18 71.1132 67.8578L71.6009 59.9009C72 55 74.7645 54.4191 75.5 54.5C72.5 55.5 72.4787 59.0168 72.0885 68.0542C71.7959 76.797 71.5033 78.074 69.4551 80.3333C65.6513 84.4591 61.7499 85.0485 40.7801 84.6556L21.3708 84.3609C18.6009 84.3609 16 83.5 15.7139 77.9757V48.9971Z" fill="black"/>
</svg>
