<svg width="100" height="100" viewBox="0 0 100 100" fill="none" xmlns="http://www.w3.org/2000/svg">
<path d="M34.5808 32.4731C29.4825 28.4904 26.0383 26.3332 26.0383 26.3332C26.0383 26.3332 28.0937 29.8408 31.7636 35.1342C35.4369 40.4286 40.6971 47.5183 47.1613 54.7438C53.624 61.9706 60.0855 67.9866 64.939 72.2257C69.7912 76.4619 73.0487 78.8937 73.0487 78.8937C73.0487 78.8937 71.2878 75.2311 67.8968 69.7219C64.5086 64.2144 59.4599 56.8695 52.9387 49.5769C46.4153 42.2863 39.678 36.4528 34.5808 32.4731Z" fill="#C20E4D"/>
<path d="M47.1697 49.1167C32.6711 63.2731 23.624 77.521 23.624 77.521C23.624 77.521 38.0848 68.8181 52.584 54.6624C67.0826 40.506 76.1297 26.2581 76.1297 26.2581C76.1297 26.2581 61.6682 34.9603 47.1697 49.1167Z" fill="#C20E4D"/>
</svg>
