<svg width="100" height="100" viewBox="0 0 100 100" fill="none" xmlns="http://www.w3.org/2000/svg">
<path d="M35.8094 16.076C33.4999 16 24.8448 21.7209 23.9223 23.6105C22.9999 25.5 25.9999 33 25.9602 34.1809C25.9205 35.3618 23.4999 40 22.8425 40.8322C22.1851 41.6644 14.7344 42.3713 13.1171 44.4357C11.4999 46.5 13.3938 57.7605 14.1967 59.1303C14.9995 60.5 22.6884 60.4408 24.0453 61.4003C25.4021 62.3597 28.1756 66.5636 28.3378 67.7818C28.5 69 26.0027 76.4255 27.0013 78.4628C28 80.5 38 85.5 39.4692 85C40.9384 84.5 46.3396 78.5245 47.6698 77.9903C49 77.456 55.0581 77.412 56.029 77.456C57 77.5 62.738 82.5534 65.119 83.2767C67.5 84 76 76.5 76.4299 74.9084C76.8599 73.3169 73.5 66 73.6324 64.5118C73.7649 63.0236 76.4299 59 77.2743 57.8228C78.1186 56.6456 86 54.5 86.9474 53.0242C87.8948 51.5484 85.5 40.5 84.7399 39.0625C83.9797 37.625 75.5 37 74.341 36.1346C73.1819 35.2691 71.5 33 71.4367 31.7334C71.3735 30.4669 72.9999 22 72.318 21.0057C71.6362 20.0114 61.4999 15.5 59.5835 15C57.6672 14.5 52.4999 22 51.6882 22.349C50.8765 22.698 45.4999 22.349 44.4545 22.5341C43.4092 22.7192 38.1189 16.1519 35.8094 16.076Z" fill="#F871A0"/>
<path d="M50.2842 36C43.3992 36 38.8091 41.0523 37.3747 43.5785C32.2109 52.2396 36.657 60.179 39.5258 63.066C42.7532 66.314 53.0813 69.9949 59.9664 63.066C66.8514 56.1371 65.3442 47.3668 63.1932 43.5785C61.7588 41.0523 57.1693 36 50.2842 36Z" fill="#FEE7EF"/>
<path d="M24.9223 22.6521C25.3448 21.3043 35.6189 14.5 36.8094 15C37.9005 15.4583 42.801 19.1168 44.9428 21.0711C45.1347 21.243 45.3071 21.4069 45.4545 21.559C45.3102 21.413 45.138 21.2491 44.9428 21.0711C43.0968 19.4164 39.4504 17.0097 38.9742 17.1028C38.4486 17.2056 28.4234 22.8399 28.2117 24.1699C27.9999 25.5 30.1136 33.1694 30.0568 34.0847C29.9999 35 27.4999 39.5 27.2339 40.3234C26.968 41.1468 19.3574 42.9067 18.4286 43.7033C17.4998 44.5 17.8122 56.4729 19.406 57.4864C20.9998 58.5 27.6459 58.7312 28.323 59.6156C29 60.5 31.9189 64.7027 32.2094 65.6013C32.5 66.5 30.9988 73.2395 30.9994 75.6198C31 78 41.0756 82.003 42.2878 81.7515C43.5 81.5 48.4254 75.3531 49.7127 75.1766C51 75 55.5623 73.8509 57.2811 74.6755C59 75.5 63.0225 79.2702 65.5112 80.1351C68 81 75.5 73.5 75.7522 72.2859C76.0043 71.0718 73.5 65 73.2193 62.5341C72.9386 60.0683 75.5 57.5 76.5166 56.2601C77.5333 55.0201 84 53.5 85.2747 51.7592C86.5494 50.0183 85.5 40 83.276 38.6635C81.052 37.327 77.5351 35.676 75.341 35.3717C77.7644 35.7012 84.2399 37.3454 86 38C87.7601 38.6546 89.3948 50.5501 87.9474 52.5251C86.5 54.5 80.0486 56.2971 78.2743 57.3985C76.5 58.5 74.2649 62.3839 74.6324 64.1919C75 66 77.8599 72.5018 77.4299 74.7509C77 77 68 84 66.119 83.2498C64.2381 82.4996 58 78 57.029 77.3383C56.0581 76.6765 50 77 48.6698 77.8808C47.3396 78.7617 42.5 85 40.4692 85C38.4384 85.0001 28.5 80.5 28.0013 78.3607C27.5027 76.2214 29 69 29.3378 67.513C29.6756 66.0261 26 62 25.0453 61.0318C24.0905 60.0637 16.4998 60 15.1967 58.7264C13.8935 57.4528 13.2344 45.6048 14.1171 43.8024C14.9999 42 23.1851 40.7854 23.8425 40.1427C24.4999 39.5 26.9999 34 26.9602 33.3876C26.9205 32.7752 24.4999 24 24.9223 22.6521Z" fill="black"/>
<path d="M51.694 35.2758C44.7779 35.2758 39.3314 39.7787 37.8905 42.3294C32.7034 51.0747 37.1695 59.0912 40.0512 62.0063C43.2932 65.2858 53.6679 69.0025 60.584 62.0063C67.5001 55.0101 65.5953 46.1681 63.4345 42.3429C65.3909 45.8756 66.7616 54.0542 60.4998 60.5156C54.2379 66.977 44.8447 63.5443 41.9094 60.5156C39.3003 57.8233 35.2567 50.4197 39.9531 42.3429C41.2576 39.9872 45.4322 35.2758 51.694 35.2758Z" fill="black"/>
</svg>
