<svg width="50" height="50" viewBox="0 0 100 100" fill="none" xmlns="http://www.w3.org/2000/svg">
<path d="M74.7086 13H52.2086C49.5 13 47.2086 14 43.2086 18C39.2086 22 22.2086 40 14.2086 48.5C12.5419 50 10.2086 53.9 14.2086 57.5L38 81C40 83 44 83.5 47.2086 80.5C56.3753 71.5 74.5 54.5 78.2086 50C82.2086 45.1464 82.0419 42.1667 82.2086 40V20C82.2086 15.2 78 13 74.7086 13Z" fill="#74953C"/>
<path d="M48.983 28.7753L27.483 49.2753C22.4831 54.2753 31.4831 58.7753 34.4829 56.7753L52.9829 39.2753C56.4829 36.2753 53.8163 34.2753 54.483 33.2753C57.4829 28.7753 50.9829 26.7752 48.983 28.7753Z" fill="#87B674"/>
<path d="M77 25C77 27.7614 74.7614 30 72 30C69.2386 30 67 27.7614 67 25C67 22.2386 69.2386 20 72 20C74.7614 20 77 22.2386 77 25Z" fill="white"/>
<path d="M51.4287 15.2853C52.3287 14.3853 55.9287 14.5853 63.6287 14.2853C81.3287 13.4853 83.9287 14.0853 85.8287 19.7853C87.5287 24.8853 87.5287 42.9854 85.9287 47.6853C84.9287 50.4853 80.4287 55.9854 71.3287 65.4853C51.6287 85.9853 48.3287 88.3854 42.1287 86.7854C38.8287 85.9854 16.9287 64.6853 14.3287 59.8853C13.0287 57.5854 12.7287 55.6853 13.2287 53.6853C14.0287 50.6853 37.4287 26.1853 45.3287 19.9853C49.4287 16.7853 48.9287 17.2853 46.2287 20.3853C44.6287 22.2853 37.3287 30.1853 30.0287 37.9853C19.6287 49.1853 16.8287 52.7853 16.8287 54.9853C16.8287 57.2853 19.1287 60.0854 28.5287 69.4853C43.4287 84.1853 43.8287 84.3854 49.2287 80.4854C50.4129 79.6241 51.4812 78.676 52.184 77.8905L55.8287 74.599C56.1937 74.2774 56.5689 73.9005 56.9287 73.4854L62.0298 68.2853C64.2036 66.3207 67.2624 63.3605 70.5287 59.9854C83.3287 46.7854 84.2287 44.8853 83.7287 29.9853C83.2287 16.6853 84.0287 16.3853 67.9287 15.7853C60.9287 15.4853 53.8287 14.7853 52.4287 15.2853C50.3287 16.0853 50.3287 16.3853 51.4287 15.2853Z" fill="black"/>
</svg>
