<svg width="100" height="100" viewBox="0 0 100 100" fill="none" xmlns="http://www.w3.org/2000/svg">
<path d="M13 29.908C13 29.908 16.887 28.722 23.237 27.484C29.584 26.245 38.406 24.983 48.188 24.838C57.97 24.696 66.826 25.7 73.206 26.753C79.589 27.805 83.509 28.877 83.509 28.877C83.509 28.877 79.537 29.742 73.157 30.628C66.774 31.513 57.995 32.447 48.301 32.588C38.607 32.731 29.805 32.054 23.399 31.356C16.996 30.656 13 29.908 13 29.908ZM13.02 52.356C13.02 52.356 29.029 47.92 48.944 47.225C68.859 46.53 85.138 49.839 85.138 49.839C85.138 49.839 69.13 54.275 49.215 54.97C29.3 55.665 13.02 52.356 13.02 52.356ZM14.643 74.235C14.643 74.235 30.966 69.944 51.223 69.428C71.48 68.912 88 72.369 88 72.369C88 72.369 71.677 76.66 51.42 77.176C31.163 77.691 14.643 74.235 14.643 74.235Z" fill="black"/>
</svg>
