<svg width="100" height="100" viewBox="0 0 100 100" fill="none" xmlns="http://www.w3.org/2000/svg">
<path d="M13.6632 82.9754L16.3422 74.0669L23.9313 81.1937L15.4488 84.3118C13.6633 84.6681 13.2173 84.7571 13.6632 82.9754Z" fill="#733D7E"/>
<path d="M16.3422 74.0669L19.9135 64.2675L32.8597 77.1849L23.9313 81.1937L16.3422 74.0669Z" fill="#FDD0DF"/>
<path d="M32.8597 77.1849L19.9135 64.2675L63.6626 19.2793L77.0551 33.0875L32.8597 77.1849Z" fill="#F871A0"/>
<path d="M66.7875 16.1613L63.6626 19.2793L77.0551 33.0875L80.1801 29.9695L66.7875 16.1613Z" fill="#D4D4D8"/>
<path d="M66.7875 16.1613L80.1801 29.9695L83.7514 26.4061C87.3227 22.3972 73.4838 9.03436 70.3588 12.5978L66.7875 16.1613Z" fill="#DE333B"/>
<path d="M63.2154 27.7424L27.5019 62.9312C25.7162 65.1583 27.0554 66.0492 28.8411 64.2675L64.5546 29.0787C65.8947 27.7424 64.109 26.8515 63.2154 27.7424Z" fill="#FDD0DF"/>
<path d="M67.2335 33.0875L32.8593 67.8309C30.1807 70.5035 31.52 71.8398 33.7521 69.6126L68.5728 33.9784C70.8053 31.7512 69.0196 31.3058 67.2335 33.0875Z" fill="#FDD0DF"/>
<path d="M20.8094 66.4947C20.6869 66.8118 20.5591 67.141 20.4267 67.4805C19.0853 71.1635 16.2098 80.7442 15.006 84.7572C14.5439 86.2974 15.006 86.5389 16.7886 85.648L32.4133 79.8575L83.305 28.1878C86.1754 25.0698 74.823 14.3796 71.6996 17.0522L35.9876 51.7956L72.594 14.3796C75.7174 11.2616 90.0012 25.5152 86.4314 29.0787L33.754 81.6392C27.0577 84.3117 19.0222 86.9843 15.4509 87.8752C13.6637 88.3209 12.4943 87.5716 13.2168 85.648C14.4827 82.2798 18.1417 73.3399 20.4267 67.4805C20.5742 67.0755 20.7032 66.7418 20.8094 66.4947Z" fill="black"/>
</svg>
