<svg width="100" height="100" viewBox="0 0 100 100" fill="none" xmlns="http://www.w3.org/2000/svg">
<path d="M49.1811 22C33.5811 21.6 16.0146 35.1666 11.6813 41.9999C10.348 43.6666 8.68121 47.5 11.6813 51C23.6811 64.5 34.1812 70.5 50.1812 71C66.6812 71.5156 78.6812 61 85.1812 54.5C87.6812 52 92.6811 48 85.6811 41C80.1995 35.5183 66.6811 22.4487 49.1811 22Z" fill="white"/>
<path d="M70.1812 45C70.1812 55.4934 61.6746 64 51.1812 64C40.6877 64 32.1812 55.4934 32.1812 45C32.1812 34.5066 40.6877 26 51.1812 26C61.6746 26 70.1812 34.5066 70.1812 45Z" fill="#FAA0BF" fill-opacity="0.5"/>
<path d="M58.1812 45C58.1812 48.866 55.0471 52 51.1812 52C47.3152 52 44.1812 48.866 44.1812 45C44.1812 41.134 47.3152 38 51.1812 38C55.0471 38 58.1812 41.134 58.1812 45Z" fill="#F871A0"/>
<path d="M61.1812 39C61.1812 41.2091 59.3903 43 57.1812 43C54.972 43 53.1812 41.2091 53.1812 39C53.1812 36.7908 54.972 35 57.1812 35C59.3903 35 61.1812 36.7908 61.1812 39Z" fill="white"/>
<path d="M35.9713 65.1396C42.3713 67.6396 54.2713 68.1396 60.3713 66.1396C63.4712 65.1233 69.4712 62.8396 71.4712 61.5396C79.2712 56.9397 87.9713 47.3396 87.9713 43.4396C87.9713 42.7396 86.2713 40.0396 84.0713 37.3396C77.3713 28.8396 65.6713 22.4396 53.6713 20.6396C48.9712 19.6836 42.6712 20.8396 42.9712 20.5396C43.2712 20.3396 50.4712 18.9346 57.1713 19.9396C67.1713 21.4396 77.6713 26.7396 84.5713 33.7396C90.9713 40.3396 91.8713 42.7396 89.4713 48.0396C87.4713 52.5396 78.0713 61.8396 73.0713 64.4396C70.4714 66.1396 66.4712 68.3396 60.1713 69.5396C46.6713 72.9396 34.8712 70.5396 22.4712 60.5396C10.1712 50.5396 8.27134 44.4396 15.0713 37.0396L19.0713 32.5396L15.5713 37.4396C13.5713 40.1396 12.9712 43.1397 12.9712 44.0396C12.9712 49.1397 25.7713 61.2396 35.9713 65.1396Z" fill="black"/>
</svg>
