<svg width="50" height="53" viewBox="0 0 100 103" fill="none" xmlns="http://www.w3.org/2000/svg">
<path d="M54.0829 38.5844C54.7624 36.5457 57.6414 36.5457 58.3209 38.5844L62.3057 50.5511C63.1828 53.1817 64.6606 55.5718 66.6219 57.532C68.5832 59.4923 70.9741 60.9687 73.6052 61.8444L85.5657 65.8291C87.6044 66.5087 87.6044 69.3876 85.5657 70.0672L73.599 74.052C70.9684 74.9291 68.5783 76.4069 66.618 78.3682C64.6578 80.3295 63.1814 82.7204 62.3057 85.3515L58.3209 97.312C58.1744 97.7584 57.8907 98.1471 57.5101 98.4228C57.1296 98.6984 56.6717 98.8468 56.2019 98.8468C55.732 98.8468 55.2742 98.6984 54.8937 98.4228C54.5131 98.1471 54.2294 97.7584 54.0829 97.312L50.0981 85.3453C49.2216 82.7154 47.7448 80.3257 45.7846 78.3655C43.8244 76.4053 41.4347 74.9285 38.8048 74.052L26.8381 70.0672C26.3917 69.9207 26.0029 69.6369 25.7273 69.2564C25.4517 68.8759 25.3033 68.418 25.3033 67.9482C25.3033 67.4783 25.4517 67.0205 25.7273 66.6399C26.0029 66.2594 26.3917 65.9757 26.8381 65.8291L38.8048 61.8444C41.4347 60.9679 43.8244 59.4911 45.7846 57.5309C47.7448 55.5707 49.2216 53.181 50.0981 50.5511L54.0829 38.5844ZM30.2174 7.08303C30.306 6.81549 30.4767 6.58268 30.7051 6.41766C30.9336 6.25265 31.2083 6.16384 31.4901 6.16384C31.7719 6.16384 32.0466 6.25265 32.275 6.41766C32.5035 6.58268 32.6742 6.81549 32.7627 7.08303L35.1536 14.2618C36.2224 17.462 38.7307 19.9702 41.9308 21.039L49.1096 23.4299C49.3771 23.5185 49.61 23.6891 49.775 23.9176C49.94 24.1461 50.0288 24.4207 50.0288 24.7025C50.0288 24.9844 49.94 25.259 49.775 25.4875C49.61 25.716 49.3771 25.8866 49.1096 25.9752L41.9308 28.3661C40.3516 28.8902 38.9165 29.7758 37.7399 30.9524C36.5634 32.129 35.6777 33.564 35.1536 35.1433L32.7627 42.3221C32.6742 42.5896 32.5035 42.8224 32.275 42.9874C32.0466 43.1524 31.7719 43.2413 31.4901 43.2413C31.2083 43.2413 30.9336 43.1524 30.7051 42.9874C30.4767 42.8224 30.306 42.5896 30.2174 42.3221L27.8266 35.1433C27.3024 33.564 26.4168 32.129 25.2402 30.9524C24.0637 29.7758 22.6286 28.8902 21.0494 28.3661L13.8706 25.9752C13.603 25.8866 13.3702 25.716 13.2052 25.4875C13.0402 25.259 12.9514 24.9844 12.9514 24.7025C12.9514 24.4207 13.0402 24.1461 13.2052 23.9176C13.3702 23.6891 13.603 23.5185 13.8706 23.4299L21.0494 21.039C22.6286 20.5149 24.0637 19.6293 25.2402 18.4527C26.4168 17.2761 27.3024 15.8411 27.8266 14.2618L30.2174 7.08303ZM73.8894 0.602366C73.9503 0.426457 74.0646 0.273921 74.2163 0.165966C74.368 0.0580104 74.5496 0 74.7357 0C74.9219 0 75.1035 0.0580104 75.2552 0.165966C75.4068 0.273921 75.5211 0.426457 75.5821 0.602366L77.176 5.3841C77.8865 7.52167 79.5607 9.19589 81.6983 9.90636L86.48 11.5003C86.6559 11.5613 86.8085 11.6755 86.9164 11.8272C87.0244 11.9789 87.0824 12.1605 87.0824 12.3466C87.0824 12.5328 87.0244 12.7144 86.9164 12.8661C86.8085 13.0178 86.6559 13.132 86.48 13.193L81.6983 14.7869C80.6458 15.1391 79.6895 15.7309 78.9047 16.5156C78.1199 17.3004 77.5282 18.2567 77.176 19.3092L75.5821 24.0909C75.5211 24.2668 75.4068 24.4194 75.2552 24.5273C75.1035 24.6353 74.9219 24.6933 74.7357 24.6933C74.5496 24.6933 74.368 24.6353 74.2163 24.5273C74.0646 24.4194 73.9503 24.2668 73.8894 24.0909L72.2954 19.3092C71.9433 18.2567 71.3515 17.3004 70.5668 16.5156C69.782 15.7309 68.8257 15.1391 67.7732 14.7869L62.9976 13.193C62.8217 13.132 62.6692 13.0178 62.5612 12.8661C62.4533 12.7144 62.3953 12.5328 62.3953 12.3466C62.3953 12.1605 62.4533 11.9789 62.5612 11.8272C62.6692 11.6755 62.8217 11.5613 62.9976 11.5003L67.7794 9.90636C69.9169 9.19589 71.5912 7.52167 72.3016 5.3841L73.8894 0.602366Z" fill="#F2B71F"/>
<path d="M49.9999 40.4561C52.5689 33.8812 56.1204 33.8148 58.4999 40.4561C59.4206 43.7859 60.4522 46.5616 61.4999 49C63.9999 54.8184 60.642 49.1785 59.9999 47.5C59.31 45.6964 58.1171 44.0646 57.489 41.8078C56.1095 38.1355 53.8631 37.5611 52.3972 41.8078C48.5304 53.0094 47.4332 60.8132 28.9585 65.9832C24.6621 67.2757 24.7236 68.7726 28.9585 70.2426C40.1293 74.12 47.2415 76.2742 52.3972 94.7999C53.6861 99.1082 56.0231 99.0465 57.489 94.7999C61.3558 83.5983 62.453 76.705 80.9277 71.535C85.2241 70.2425 85.7349 68.47 81.4999 67C77.8369 65.449 76.5934 64.1346 77.4999 64.5C78.7565 64.9581 81.1522 65.9709 82.4999 66.5C88.4241 68.8259 90.4999 71.0284 83.4999 73C63.7262 78.5695 63.1386 85.4766 58.9999 97.5439C56.7857 104 52.785 104 50.9999 97.5439C45.4817 77.5864 38.4798 76.1089 26.5 72C18.9672 69.4164 19.1059 66.4473 26.7044 64.0549C46.4781 58.4854 45.357 52.3386 49.9999 40.4561Z" fill="black"/>
<path d="M28.0582 10.7416C29.4772 7.10453 31.4388 7.06778 32.7532 10.7416C33.2617 12.5836 33.8315 14.119 34.4102 15.4679C35.7911 18.6866 33.9363 15.5667 33.5817 14.6382C33.2006 13.6404 32.5417 12.7378 32.1948 11.4893C31.4328 9.45788 30.1921 9.14016 29.3823 11.4893C27.2465 17.6858 26.6405 22.0028 16.4361 24.8627C14.0629 25.5777 14.0969 26.4057 16.4361 27.2189C22.6062 29.3638 26.5346 30.5555 29.3823 40.8035C30.0943 43.1868 31.3851 43.1527 32.1948 40.8035C34.3306 34.607 34.9366 30.7938 45.1411 27.9339C47.5142 27.2189 47.7963 26.2383 45.4572 25.4252C43.4339 24.5672 42.7471 23.8401 43.2478 24.0422C43.9419 24.2956 45.2651 24.8559 46.0095 25.1486C49.2817 26.4352 50.4283 27.6536 46.5619 28.7443C35.6399 31.8252 35.3153 35.646 33.0293 42.3215C31.8063 45.8928 29.5966 45.8928 28.6106 42.3215C25.5626 31.2813 21.6951 30.464 15.0781 28.1911C10.9174 26.7619 10.994 25.1194 15.191 23.796C26.113 20.7151 25.4937 17.3148 28.0582 10.7416Z" fill="black"/>
<path d="M73.8502 1.85244C74.8089 -0.605049 76.1343 -0.62988 77.0224 1.85244C77.366 3.09703 77.751 4.13449 78.142 5.0459C79.0751 7.22064 77.8219 5.11261 77.5822 4.48524C77.3247 3.8111 76.8795 3.2012 76.6451 2.35765C76.1303 0.985053 75.2919 0.770379 74.7448 2.35765C73.3017 6.54448 72.8922 9.46134 65.9973 11.3937C64.3939 11.8768 64.4168 12.4363 65.9973 12.9857C70.1663 14.435 72.8207 15.2402 74.7448 22.1645C75.2259 23.7749 76.098 23.7518 76.6451 22.1645C78.0883 17.9777 78.4977 15.4012 85.3926 13.4688C86.9961 12.9857 87.1867 12.3232 85.6062 11.7738C84.2391 11.1941 83.7751 10.7028 84.1134 10.8393C84.5823 11.0106 85.4764 11.3891 85.9794 11.5869C88.1904 12.4562 88.9651 13.2795 86.3526 14.0164C78.9729 16.0981 78.7536 18.6798 77.209 23.1902C76.3827 25.6033 74.8896 25.6033 74.2234 23.1902C72.1639 15.7306 69.5508 15.1784 65.0798 13.6426C62.2685 12.6769 62.3203 11.5672 65.1561 10.673C72.5358 8.59126 72.1174 6.29376 73.8502 1.85244Z" fill="black"/>
</svg>
