<svg width="100" height="100" viewBox="0 0 100 100" fill="none" xmlns="http://www.w3.org/2000/svg">
<path d="M42.3842 20.102C46.0872 20.102 46.0932 14.348 42.3842 14.348C38.6822 14.347 38.6762 20.102 42.3842 20.102Z" fill="#71717A"/>
<path d="M31.9774 76.641C30.3094 74.663 28.1114 73.963 25.6064 74.614C24.1464 74.993 22.4894 76.386 22.2574 77.963C21.9404 80.112 21.9544 81.495 23.1814 83.325C25.3684 81.138 27.5554 78.951 29.7424 76.764C29.9994 77.103 30.2564 77.442 30.5134 77.781C29.2514 71.733 20.0514 74.302 21.2654 80.331C22.2134 85.039 26.5734 86.741 30.9474 86.363C36.5894 85.876 42.2494 84.627 47.7364 83.274C53.7254 81.797 51.1894 72.545 45.1864 74.026C42.3734 74.72 39.5484 75.349 36.6974 75.867C35.4024 76.102 34.1044 76.321 32.8024 76.515C32.1844 76.601 31.5654 76.687 30.9474 76.773C29.6404 76.59 29.4954 76.926 30.5134 77.781C27.4304 78.631 24.3484 79.481 21.2654 80.331C21.7034 82.432 22.9764 84.098 24.9024 85.047C28.8714 87.002 34.3404 82.778 31.4634 78.486C31.2764 78.206 31.0884 77.927 30.9014 77.647C31.0624 78.879 31.2234 80.11 31.3844 81.342C31.4254 81.066 31.4654 80.79 31.5064 80.514C30.3904 81.63 29.2734 82.747 28.1574 83.863C28.3534 83.812 28.5494 83.761 28.7454 83.71C27.5134 83.549 26.2824 83.388 25.0504 83.227C25.0994 83.293 25.1474 83.358 25.1964 83.424C29.1804 88.147 35.9344 81.333 31.9774 76.641Z" fill="#FAA0BF"/>
<path d="M71.3384 36.708C71.2544 36.718 71.1764 36.736 71.0954 36.75C58.3444 37.151 45.5904 37.2 32.8364 36.906C28.4744 36.051 25.0864 37.193 23.1074 40.17C22.3794 40.717 21.7884 41.52 21.4564 42.616C20.2584 46.568 20.4544 51.233 20.5584 55.608C20.5004 57.14 20.5184 58.527 20.5834 59.632C20.6144 60.153 20.7264 60.613 20.8724 61.046C20.5304 66.671 20.0524 72.435 20.5004 77.919C20.8614 82.335 23.1714 84.321 26.4664 85.163C27.8774 86.391 29.7444 86.901 32.0604 86.883C37.5504 86.84 43.0124 86.212 48.5344 86.334C54.3704 86.463 60.2014 86.791 66.0404 86.801C70.2224 86.809 75.8674 87.521 79.1434 84.324C82.1154 81.424 81.5514 76.631 81.7264 72.806C81.9934 66.985 82.1534 61.158 82.2084 55.332C82.2944 46.331 83.5154 35.235 71.3384 36.708Z" fill="#FAA0BF"/>
<path d="M70.1535 33.277C70.2435 29.829 70.2565 26.113 69.0235 23.15C68.8745 22.793 68.6855 22.443 68.4775 22.097C67.9595 20.658 67.2765 19.309 66.3975 18.088C66.0915 16.679 64.7585 15.361 63.4895 14.575C59.4975 10.461 54.5875 9.272 49.1685 10.297C46.9895 10.448 44.8005 11.008 42.6825 12.046C41.7455 12.506 40.9095 13.04 40.1335 13.618C38.1355 14.815 36.6765 16.55 35.5295 18.515C35.1315 19.091 34.7555 19.686 34.4155 20.31C34.4085 20.324 34.4055 20.337 34.3985 20.351C34.0575 20.9 33.7815 21.473 33.5695 22.068C33.2505 22.86 33.0085 23.681 32.8565 24.524C32.6715 24.881 32.5485 25.297 32.5185 25.779C32.4135 27.442 32.3945 29.074 32.4525 30.704C32.3895 31.339 32.3335 31.973 32.2875 32.605C32.2115 33.379 32.1625 34.137 32.1445 34.871C32.1325 35.373 32.2305 35.801 32.4005 36.166C32.3845 36.586 32.3695 37.006 32.3535 37.426C32.3095 38.605 33.2985 39.646 34.4325 39.781C35.1195 39.863 35.9355 39.617 36.4795 39.115C38.1595 39.579 40.1335 38.737 39.9885 36.487C39.6885 31.843 39.1305 26.351 41.8485 22.237C43.6825 19.462 46.6955 18.331 49.8145 17.666C49.8735 17.662 49.9335 17.663 49.9925 17.658C50.6975 17.593 51.4065 17.572 52.1145 17.596C52.4335 17.607 52.7525 17.627 53.0705 17.656C53.2015 17.668 53.3315 17.683 53.4625 17.698C53.5135 17.706 53.6045 17.72 53.6985 17.736C54.3595 17.849 55.0135 18.003 55.6545 18.202C55.9565 18.296 56.2545 18.399 56.5495 18.513C56.6155 18.538 56.6795 18.565 56.7305 18.588C56.7605 18.602 56.7905 18.617 56.8215 18.631C59.0015 20.414 61.1645 23.587 61.6265 25.318C62.6145 29.02 62.4505 33.447 62.3565 37.248C62.3195 38.741 63.1785 39.608 64.2565 39.888C64.5355 43.245 69.6005 42.955 69.9855 39.495C70.2195 37.399 70.2715 35.325 70.1535 33.277ZM56.7825 18.609C56.8095 18.621 56.8105 18.622 56.7825 18.609V18.609Z" fill="#71717A"/>
<path d="M27.8442 44.64C27.7402 44.913 27.6372 45.187 27.5332 45.46C27.1102 46.575 27.9132 47.863 28.9212 48.289C29.9212 48.711 31.4262 48.399 31.9152 47.308C32.4012 46.224 32.6842 45.202 32.7562 44.008C32.8492 42.467 31.1472 41.264 29.7212 41.696C28.5232 42.059 27.5442 42.896 26.9762 44.014C26.7212 44.516 26.5272 45.05 26.3462 45.583C26.2772 45.786 26.2252 46.017 26.1252 46.206C26.4182 45.651 25.9962 46.366 25.9332 46.459C27.3942 46.65 28.8552 46.841 30.3152 47.032C30.3492 47.238 30.3252 47.363 30.3392 47.089C30.3432 47.014 30.3972 46.479 30.3362 46.825C30.2802 47.143 30.3742 46.724 30.3902 46.667C30.4352 46.51 30.4922 46.36 30.5542 46.209C29.0132 45.784 27.4712 45.359 25.9302 44.934C25.4502 48.482 25.4492 52.017 25.5252 55.589C25.5522 56.842 26.6092 58.046 27.9232 57.987C29.2332 57.928 30.3072 56.934 30.3212 55.589C30.3252 55.151 30.3452 54.714 30.3882 54.277C30.4002 54.152 30.4142 54.028 30.4302 53.904C30.3852 54.231 30.3842 54.258 30.4252 53.984C30.4612 53.8 30.4902 53.614 30.5282 53.43C30.6942 52.623 30.8782 51.642 31.2872 50.917C31.0072 51.413 31.2862 50.925 31.3442 50.801C31.4492 50.574 31.5602 50.349 31.6772 50.128C31.8822 49.741 32.1032 49.362 32.3412 48.995C32.4432 48.838 32.5482 48.682 32.6572 48.529C32.7292 48.427 32.8032 48.326 32.8772 48.225C32.6912 48.461 32.6822 48.475 32.8482 48.266C33.1312 47.931 33.4172 47.601 33.7222 47.285C32.4672 46.316 31.2112 45.348 29.9562 44.379C29.8152 44.601 29.6692 44.818 29.5142 45.03C29.8412 44.583 29.4052 45.144 29.3282 45.23C28.9982 45.597 28.6392 45.931 28.2582 46.245C29.3882 47.375 30.5192 48.506 31.6492 49.636C32.7412 48.333 33.9442 47.138 35.2562 46.057C36.2282 45.256 36.1482 43.485 35.2562 42.666C34.2232 41.718 32.9022 41.811 31.8652 42.666C30.5542 43.748 29.3502 44.942 28.2582 46.245C27.4542 47.205 27.2462 48.707 28.2582 49.636C29.2902 50.584 30.6132 50.491 31.6492 49.636C32.6172 48.837 33.4262 47.858 34.0962 46.8C34.7362 45.788 34.3882 44.409 33.4782 43.707C32.5552 42.994 31.1662 43.03 30.3302 43.894C27.3042 47.023 25.5702 51.233 25.5252 55.587C27.1232 55.587 28.7222 55.587 30.3202 55.587C30.2852 53.952 30.2512 52.316 30.2782 50.68C30.2912 49.882 30.3202 49.085 30.3702 48.289C30.3942 47.91 30.4232 47.532 30.4582 47.154C30.4792 46.927 30.5022 46.701 30.5272 46.474C30.5382 46.372 30.6212 45.715 30.5542 46.207C30.6452 45.538 30.6692 44.969 30.3122 44.359C30.0212 43.862 29.4512 43.387 28.8792 43.257C27.4862 42.94 26.4392 43.685 25.9302 44.932C25.4832 46.025 25.5052 47.162 25.6912 48.305C25.8412 49.224 26.8412 49.909 27.6842 50.022C28.6712 50.155 29.5252 49.691 30.0732 48.877C30.5582 48.157 30.8022 47.307 31.0912 46.497C31.2572 46.032 31.2132 46.443 31.0772 46.505C31.0822 46.503 31.3202 46.075 31.3202 46.075C31.2602 46.15 31.2002 46.225 31.1412 46.3C31.2102 46.218 31.2842 46.142 31.3642 46.071C31.2862 46.134 31.2092 46.196 31.1312 46.259C31.3592 46.137 31.3132 46.157 30.9932 46.318C29.9812 45.547 28.9702 44.777 27.9582 44.006C27.9512 44.128 27.9632 44.281 27.9272 44.398C28.0222 44.086 27.9542 44.176 27.8902 44.438C27.8592 44.566 27.8232 44.692 27.7822 44.817C27.7472 44.926 27.5632 45.351 27.7722 44.885C29.2332 45.501 30.6942 46.117 32.1542 46.733C32.2582 46.46 32.3612 46.186 32.4652 45.913C32.9112 44.738 31.9722 43.233 30.7902 42.964C29.4272 42.654 28.3212 43.382 27.8442 44.64Z" fill="#FAA0BF"/>
<path d="M19.2978 39.974C19.2978 39.974 19.2168 40.144 19.0588 40.475C18.8848 40.801 18.6808 41.307 18.4428 41.987C17.9728 43.347 17.5518 45.451 17.4228 48.187C17.2718 50.919 17.4648 54.272 17.5478 58.107C17.5928 61.93 17.2058 66.303 16.9508 71.176C16.8608 73.602 16.6238 76.192 17.1378 79.004C17.4008 80.396 17.8998 81.843 18.8028 83.132C19.7028 84.41 21.0138 85.471 22.4388 86.124C25.3418 87.531 28.6208 87.537 31.6518 87.475C34.6628 87.367 37.7968 87.524 41.0098 87.551C47.4488 87.643 54.1868 87.74 61.1618 87.839C62.0238 87.853 62.8898 87.868 63.7588 87.882C64.6448 87.91 65.5338 87.938 66.4268 87.967C68.2448 88.006 70.1498 87.983 72.1248 87.607C74.0748 87.226 76.2098 86.392 77.7788 84.707C78.5638 83.879 79.1698 82.885 79.5608 81.87C79.9578 80.854 80.1878 79.825 80.3338 78.818C80.6228 76.801 80.5758 74.889 80.6008 73.088C80.6448 71.27 80.6888 69.464 80.7318 67.671C80.8128 64.05 80.8938 60.482 80.9718 56.971C81.0088 55.19 81.0218 53.564 81.1138 51.833C81.1858 50.116 81.2638 48.38 81.2018 46.622C81.1428 44.868 80.9558 43.082 80.4288 41.325C79.9048 39.598 79.0048 37.802 77.4458 36.551C75.8968 35.291 73.9568 34.803 72.2528 34.729C71.3868 34.675 70.5488 34.71 69.7378 34.783L69.4338 34.81L69.2848 34.823L69.2258 34.831L68.9888 34.865C68.8668 34.892 68.8028 34.89 68.7018 34.901C68.6468 34.87 68.6758 34.748 68.6588 34.67L68.6498 34.534L68.6378 34.069C68.6218 33.292 68.6068 32.522 68.5388 31.795C68.4288 30.317 68.3138 28.85 68.1358 27.401C67.7808 24.506 67.2118 21.677 66.0468 19.106C65.4508 17.785 64.6388 16.637 63.7348 15.645C62.8348 14.649 61.8648 13.771 60.8388 13.035C56.7588 10.086 52.2118 8.627 48.1848 8.882C44.1798 9.2 41.0658 10.728 38.6958 12.056C37.5148 12.736 36.4718 13.403 35.6998 14.137C34.9178 14.855 34.3588 15.556 33.9378 16.138C33.5178 16.722 33.2368 17.192 33.0538 17.51C32.8738 17.83 32.7818 17.994 32.7818 17.994C32.7818 17.994 32.8848 17.836 33.0848 17.529C33.2888 17.224 33.5978 16.774 34.0498 16.223C34.5018 15.674 35.0958 15.017 35.8988 14.364C36.6898 13.697 37.7308 13.114 38.9398 12.505C41.3378 11.327 44.4758 10.019 48.2308 9.915C51.9388 9.853 56.1828 11.435 59.8438 14.331C60.7638 15.05 61.6128 15.892 62.3818 16.812C63.1548 17.729 63.8188 18.762 64.2698 19.881C65.2158 22.189 65.6718 24.858 65.9138 27.634C66.0378 29.027 66.1038 30.462 66.1678 31.933C66.2138 32.679 66.2028 33.397 66.1948 34.12C66.1948 34.67 66.1938 35.222 66.1938 35.777C66.1908 36.114 66.2148 36.423 66.2238 36.75L66.2428 37.236L66.2528 37.48L66.2558 37.54L66.3168 37.539L66.4398 37.537C67.0838 37.52 67.7798 37.528 68.3828 37.484L69.2898 37.4L69.6568 37.371L69.9298 37.355C70.6568 37.309 71.3788 37.302 72.0748 37.365C73.4778 37.466 74.7508 37.876 75.6938 38.682C76.6468 39.478 77.2838 40.725 77.6778 42.131C78.0698 43.54 78.2158 45.094 78.2378 46.699C78.2658 48.305 78.1648 49.968 78.0658 51.678C77.9468 53.374 77.9028 55.215 77.8458 56.929C77.7338 60.415 77.6188 63.96 77.5038 67.556C77.4508 69.374 77.3968 71.204 77.3438 73.047C77.3158 74.904 77.3428 76.694 77.0998 78.353C76.8658 80.01 76.3628 81.49 75.4048 82.474C74.4628 83.502 73.0598 84.114 71.4938 84.435C68.3328 85.065 64.7308 84.628 61.1698 84.708C54.1848 84.736 47.4368 84.764 40.9888 84.79C37.7768 84.84 34.6408 84.766 31.5668 84.963C28.5658 85.121 25.7168 85.146 23.3768 84.093C22.1868 83.592 21.2268 82.846 20.4948 81.902C19.7738 80.95 19.3118 79.805 19.0388 78.604C18.4908 76.195 18.5918 73.642 18.5878 71.224C18.6358 66.383 18.8238 61.967 18.5838 58.068C18.3068 54.191 17.9388 50.905 17.9358 48.198C17.9108 45.495 18.1988 43.402 18.5798 42.027C18.7728 41.341 18.9428 40.823 19.0948 40.489C19.2278 40.149 19.2978 39.974 19.2978 39.974Z" fill="black"/>
<path d="M37.8476 56.585C37.0276 55.954 36.0096 55.587 34.9086 55.591C32.8216 55.599 30.8256 57.081 30.2686 59.099C29.7716 60.898 30.2786 63.028 31.7206 64.269C33.0686 65.428 35.0116 65.914 36.7236 65.31C38.7196 64.605 40.1666 62.818 40.0936 60.638C40.0376 58.972 39.1876 57.47 37.8476 56.585Z" fill="#D4D4D8"/>
<path d="M52.5544 55.759C50.9434 55.223 49.0274 55.57 47.7854 56.761C46.5684 57.928 46.1114 59.676 46.5544 61.305C46.7624 62.068 47.1664 62.756 47.7024 63.312C47.8714 63.553 48.0564 63.783 48.2724 63.992C49.9234 65.581 52.4344 65.39 54.1104 63.954C54.5034 63.617 54.8144 63.228 55.0624 62.811C55.1134 62.767 55.1664 62.727 55.2164 62.682C56.2944 61.73 56.3464 59.861 55.4764 58.744C55.0344 57.405 54.0354 56.252 52.5544 55.759Z" fill="#D4D4D8"/>
<path d="M71.3082 60.43C70.8522 57.035 67.0632 55.19 64.1312 57.079C62.7472 57.97 61.8312 59.519 61.9122 61.188C61.9952 62.895 63.1342 64.781 64.9532 65.058C65.1672 65.091 65.3742 65.114 65.5782 65.125C68.4792 66 71.7472 63.696 71.3082 60.43Z" fill="#D4D4D8"/>
</svg>
