<svg width="50" height="50" viewBox="0 0 100 100" fill="none" xmlns="http://www.w3.org/2000/svg">
<path d="M89.1742 52.4849C89.1482 52.1419 89.0932 51.8198 89.0142 51.5188C88.9052 49.3867 88.5381 47.3257 87.7831 45.4696C85.716 40.3894 80.6988 40.3104 75.9436 40.0754C70.0644 39.7854 64.1822 39.5623 58.3009 39.2963C53.9547 39.0993 49.3656 38.3433 45.2104 39.5963C44.8614 39.5833 44.5114 39.5653 44.1623 39.5533C40.5912 39.4323 36.806 39.5183 33.6959 41.0144C32.6829 41.0064 31.6798 41.3754 30.8878 42.2695C26.0796 47.6977 27.0897 54.0849 27.1737 60.8942C27.2517 67.2065 26.9686 73.1547 34.2489 74.9258C35.532 75.2378 36.858 75.3968 38.2061 75.4618C41.5672 76.2458 45.3424 76.1528 48.4155 76.0988C57.2139 75.9468 66.0122 75.8428 74.8096 75.6758C74.8736 75.6748 74.9296 75.6578 74.9926 75.6538C76.8987 78.2209 78.9668 80.658 81.2169 82.9271C82.2899 84.2872 83.3779 85.6352 84.519 86.9403C84.736 87.1883 85.012 87.3523 85.315 87.4453C85.529 87.5573 85.766 87.6353 86.024 87.6663C86.9701 87.7793 88.2191 87.1993 88.3731 86.1322C88.4001 85.9432 88.4081 85.7502 88.4322 85.5602C88.4381 85.5612 88.4442 85.5622 88.4501 85.5622C88.4482 85.5182 88.4482 85.4752 88.4462 85.4312C88.7992 82.4581 88.7172 79.393 88.7492 76.4128C88.7822 73.4027 88.7812 70.3916 88.7502 67.3805C89.3642 62.4223 89.5542 57.5091 89.1742 52.4849Z" fill="#A1A1AA"/>
<path d="M75.8286 36.1172C76.6807 32.9741 76.7877 29.5429 76.5347 26.4808C76.4857 25.8908 76.4317 25.2938 76.3737 24.6967C76.3187 23.9157 76.2547 23.1417 76.1806 22.3816C76.0556 21.1046 75.8346 19.7915 75.4936 18.5105C75.4566 18.3285 75.4276 18.1415 75.3886 17.9605C75.0696 16.5064 74.4546 15.1513 73.5685 14.0133C72.5505 12.4422 71.1924 11.1222 69.3824 10.2752C66.0132 8.69709 61.9441 8.9951 58.1499 9.27111C58.0449 9.26411 57.9379 9.25711 57.8339 9.25011C53.5097 8.9741 49.1696 8.9601 44.8394 9.0481C39.8862 9.1491 34.936 9.40811 29.9868 9.63012C29.5608 9.61212 29.1327 9.58112 28.7077 9.57612C28.2407 9.57012 27.7717 9.59612 27.3037 9.63612C26.3126 9.43012 25.2846 9.35511 24.2375 9.45912C19.8694 9.89113 16.6052 12.6362 15.2852 16.8214C14.6671 18.7785 14.5571 20.9036 14.4821 22.9427C14.3911 25.4198 14.3421 27.8989 14.3221 30.377C14.2831 35.1692 14.3691 39.9614 14.5701 44.7495C14.5841 45.0876 14.6561 45.4116 14.7532 45.7246C14.7112 46.9136 14.6652 48.1017 14.6571 49.2917C14.6451 50.9318 14.6641 52.5729 14.7142 54.2119C14.7642 55.845 14.5021 58.0171 16.1772 58.9491C17.2093 59.5232 18.4733 59.1781 19.0973 58.1831C21.3174 54.649 24.2795 51.7008 27.2187 48.7677C27.3227 48.6647 27.4047 48.5567 27.4817 48.4477C34.551 48.3617 57.6599 47.8297 62.1281 47.5507C64.7642 47.3857 67.4643 46.9876 69.7884 45.6466C72.2385 44.2315 73.7635 41.9494 74.7846 39.3963C75.3596 38.3953 75.7226 37.2852 75.8286 36.1172Z" fill="#71717A"/>
<path d="M74.5746 30.343C74.5746 30.343 74.5926 29.4239 74.4866 27.6739C74.3646 25.9208 74.1426 23.3587 73.4275 20.0615C73.1965 19.2425 72.8565 18.3965 72.3645 17.5784C72.2425 17.3734 72.1095 17.1704 71.9685 16.9704C71.8255 16.7854 71.7285 16.5964 71.5745 16.3804C71.2954 15.9674 70.9834 15.5614 70.6334 15.1703C69.9364 14.3863 69.0794 13.6693 68.0763 13.1043C67.0703 12.5482 65.9442 12.1282 64.7482 11.8672C62.3501 11.3382 59.741 11.3732 57.0619 11.5112L56.5569 11.5372C56.3978 11.5442 56.1858 11.5612 56.1188 11.5552C55.7878 11.5282 55.4548 11.5012 55.1198 11.4742C54.4288 11.4282 53.7287 11.3812 53.0187 11.3342C51.5997 11.2512 50.1416 11.1932 48.6495 11.1542C45.6634 11.0712 42.5373 11.0932 39.2971 11.1232C36.049 11.1522 32.6729 11.1812 29.1817 11.2122C27.4327 11.2302 25.6556 11.2482 23.8505 11.2672C21.9294 11.3142 19.9174 11.6192 18.0033 12.4822C16.0812 13.3063 14.3571 14.8093 13.2081 16.6574C12.063 18.5075 11.472 20.6606 11.246 22.7247C11.123 23.7587 11.066 24.7807 11.018 25.7828C11.014 26.7798 11.011 27.7829 11.007 28.7909C11.005 30.809 11.002 32.8491 11 34.9101C11.003 39.0383 11.006 43.2495 11.009 47.5357C11.015 49.6808 11.02 51.8438 11.026 54.0249C11.03 55.114 11.034 56.208 11.038 57.3051C11.082 58.2851 10.918 59.5352 11.421 61.0902C11.906 62.7173 13.7901 64.2303 15.8282 63.8763C16.8112 63.7293 17.7183 63.1803 18.3103 62.4083L18.5193 62.1123L18.6373 61.9262L18.8613 61.5712L19.3033 60.8772C19.8924 59.9622 20.4974 59.0701 21.1434 58.2451C21.7824 57.4271 22.4845 56.647 23.1575 56.14C23.3705 55.985 23.5935 55.848 23.7265 55.805L23.7635 55.782H23.7645C23.7645 55.782 23.7565 55.763 23.7775 55.836C23.8155 55.907 23.8405 56.038 23.8645 56.175C23.9655 56.713 23.9905 57.4171 23.9605 58.1341C23.9045 59.5902 23.6905 61.0912 23.5415 62.7243L23.4985 63.3713C23.4935 63.5953 23.4825 63.8783 23.4885 64.0533L23.5045 65.2134C23.5145 65.9924 23.5315 66.7794 23.5635 67.5765C23.6365 69.1695 23.7755 70.8206 24.2515 72.4997C24.7156 74.1628 25.6186 75.8928 27.0257 77.1229C28.4257 78.3459 30.0938 79.0569 31.6888 79.442C32.4859 79.654 33.2759 79.783 34.0629 79.882C34.456 79.93 34.847 79.967 35.237 79.996L35.819 80.033L35.997 80.041C35.997 80.041 36.013 80.043 35.997 80.04L36.115 80.064C37.6621 80.396 39.1901 80.539 40.6862 80.615C43.6903 80.745 46.5174 80.582 49.3006 80.533C52.0857 80.46 54.8238 80.388 57.5109 80.317C62.6831 80.166 67.6573 80.02 72.4005 79.881C72.4885 79.928 72.5065 79.991 72.6205 80.114L73.2525 80.882C73.6755 81.381 74.0956 81.8771 74.5116 82.3681C75.3526 83.3341 76.1816 84.2842 76.9967 85.2202C78.6458 87.0653 80.2428 88.8503 81.7889 90.5804C81.9689 90.7814 82.1699 90.9444 82.3819 91.0734C82.4879 91.1374 82.5979 91.1944 82.7079 91.2424C82.8169 91.2904 82.9489 91.3324 82.9489 91.3324C82.9489 91.3324 83.1019 91.4034 83.2129 91.4434C83.3299 91.4864 83.449 91.5215 83.569 91.5495C83.808 91.6055 84.058 91.6274 84.294 91.6215C84.766 91.6115 85.195 91.5045 85.595 91.3254C86.3781 91.0084 87.1591 90.1904 87.2551 89.2514C87.2751 89.0734 87.2921 88.9153 87.3091 88.7573L87.3301 88.5643L87.3281 88.5273C87.3221 88.4123 87.3221 88.4593 87.3321 88.2853L87.3551 87.8923C87.3741 87.6253 87.3771 87.3823 87.3841 87.1343C87.3951 86.6413 87.4061 86.1522 87.4171 85.6662C87.4271 84.7012 87.4371 83.7531 87.4461 82.8201C87.4491 80.961 87.4521 79.1669 87.4541 77.4409C87.4331 73.9997 87.4131 70.8296 87.3951 67.9545C87.3281 62.1993 87.2821 57.7171 87.1581 54.4849L87.1631 54.5149C87.0081 52.3859 86.6261 50.8628 86.3161 49.8898C85.999 48.9157 85.782 48.4737 85.782 48.4737C85.782 48.4737 85.973 48.9287 86.2391 49.9128C86.4981 50.8958 86.8031 52.4219 86.8631 54.5309H86.9861C86.7751 54.588 86.9051 54.555 86.8671 54.567V54.596L86.8661 54.63L86.8631 54.835L86.8581 55.133C86.8531 55.341 86.8481 55.554 86.8431 55.772C86.8311 56.209 86.8181 56.667 86.8041 57.1461C86.7741 58.1051 86.7411 59.1471 86.7061 60.2682C86.6311 62.5173 86.5461 65.0844 86.4501 67.9455C86.3481 70.8166 86.2351 73.9827 86.1121 77.4189C86.0431 79.14 85.971 80.929 85.897 82.7831C85.853 83.7091 85.809 84.6522 85.763 85.6102C85.7 86.5943 85.636 87.5953 85.57 88.6113L85.589 88.3813C85.56 88.5673 85.531 88.7543 85.499 88.9653C85.435 89.2654 85.254 89.4714 84.863 89.6344C84.678 89.7104 84.463 89.7524 84.275 89.7464C84.182 89.7454 84.098 89.7344 84.01 89.7104C83.967 89.6984 83.924 89.6844 83.882 89.6664C83.834 89.6464 83.828 89.6444 83.68 89.5664C83.534 89.5184 83.521 89.5104 83.4879 89.4944C83.4569 89.4794 83.4279 89.4624 83.3989 89.4424C83.3419 89.4034 83.2879 89.3564 83.2409 89.2984C81.7579 87.5273 80.2268 85.6992 78.6457 83.8101C77.8647 82.8571 77.0717 81.8901 76.2657 80.906C75.8706 80.411 75.4726 79.913 75.0706 79.41C74.5466 78.7319 74.0176 78.0489 73.4845 77.3599L72.6615 77.4789L71.9775 77.4779L71.0474 77.4799C70.4254 77.4819 69.8004 77.4829 69.1714 77.4849C67.9123 77.4889 66.6393 77.4929 65.3522 77.4969C62.7751 77.5079 60.143 77.5189 57.4589 77.5299C54.7718 77.5449 52.0327 77.5609 49.2466 77.5769C46.4564 77.5749 43.6073 77.6819 40.8522 77.5159C39.4732 77.4239 38.1021 77.2709 36.792 76.9689L36.642 76.9349C36.537 76.9159 36.465 76.8899 36.373 76.8829L36.003 76.8609L35.488 76.8209C35.146 76.7909 34.805 76.7539 34.468 76.7079C33.7959 76.6139 33.1229 76.4958 32.4899 76.3158C31.2118 75.9938 30.0738 75.4478 29.2087 74.6798C28.3507 73.9047 27.7907 72.8497 27.4427 71.5936C27.0947 70.3386 26.9666 68.9155 26.9126 67.4375C26.8876 66.6964 26.8766 65.9394 26.8706 65.1714L26.8616 64.0073C26.8576 63.7953 26.8706 63.6893 26.8716 63.5253L26.9096 63.0093C27.0477 61.5452 27.2847 59.9462 27.3567 58.2601C27.3877 57.4091 27.3897 56.527 27.2047 55.512C27.1587 55.26 27.1067 55.003 26.9927 54.707C26.9006 54.3969 26.7206 54.0229 26.4886 53.7089C26.2856 53.3689 25.9836 53.1229 25.6796 52.8819C25.3616 52.6699 24.9776 52.5669 24.6306 52.4049C23.9345 52.3119 23.1295 52.3789 22.5105 52.6129C21.9414 52.8289 21.5284 53.1069 21.1334 53.3889C19.9984 54.2539 19.2053 55.198 18.4543 56.146C17.7143 57.0961 17.0602 58.0671 16.4412 59.0351L15.6252 60.3252C15.5382 60.4392 15.4232 60.5052 15.3042 60.5242C15.1802 60.5362 15.0872 60.5342 14.9342 60.4252C14.7812 60.3292 14.7072 60.2252 14.5991 59.9602C14.3871 59.4041 14.4041 58.4031 14.3871 57.2071C14.3751 56.114 14.3621 55.026 14.3501 53.9419C14.3241 51.7768 14.2971 49.6297 14.2711 47.4997C14.2111 43.2435 14.1521 39.0603 14.0941 34.9602C14.0611 32.9121 14.0291 30.884 13.9971 28.8789C13.9821 27.8769 13.9661 26.8808 13.9511 25.8898C13.9781 24.9057 14.0141 23.9527 14.1051 23.0347C14.2691 21.1976 14.7222 19.5215 15.5592 18.0825C16.4062 16.6704 17.6163 15.5404 19.1033 14.8553C20.5744 14.1423 22.2495 13.8253 23.9275 13.7413C25.7286 13.6733 27.5027 13.6063 29.2467 13.5403C32.7309 13.4033 36.099 13.2713 39.3412 13.1433C42.5833 13.0083 45.6794 12.8813 48.6345 12.8573C50.1116 12.8433 51.5536 12.8473 52.9577 12.8763C53.6587 12.8963 54.3518 12.9163 55.0358 12.9353C55.3868 12.9503 55.7358 12.9653 56.0828 12.9803C56.3548 12.9763 56.4799 12.9503 56.6569 12.9383L57.1569 12.8933C59.804 12.6512 62.2901 12.5262 64.5362 12.9233C69.1314 13.5713 71.8625 17.2754 72.9185 20.2156C73.7636 23.3757 74.1316 25.9628 74.3406 27.6859C74.5396 29.4229 74.5746 30.343 74.5746 30.343Z" fill="black"/>
<path d="M26.4706 25.4538C37.7121 24.9387 48.9685 24.8187 60.218 25.0948C63.4371 25.1738 63.4351 20.1736 60.218 20.0945C48.9675 19.8185 37.7121 19.9385 26.4706 20.4536C23.2655 20.6006 23.2475 25.6008 26.4706 25.4538Z" fill="#F2F2F2"/>
<path d="M27.6697 35.8822C36.271 37.3272 44.8694 35.0792 53.4817 36.0392C54.8258 36.1892 55.9818 34.7831 55.9818 33.5391C55.9818 32.063 54.8298 31.189 53.4817 31.039C45.3354 30.131 37.1051 32.423 28.9987 31.061C27.6687 30.837 26.3066 31.412 25.9236 32.8071C25.5946 34.0051 26.3306 35.6572 27.6697 35.8822Z" fill="#F2F2F2"/>
</svg>
