<svg width="100" height="100" viewBox="0 0 100 100" fill="none" xmlns="http://www.w3.org/2000/svg">
<path d="M49.1811 22C33.5811 21.6 16.0146 35.1666 11.6813 41.9999C10.348 43.6666 8.68121 47.5 11.6813 51C23.6811 64.5 34.1812 70.5 50.1812 71C66.6812 71.5156 78.6812 61 85.1812 54.5C87.6812 52 92.6811 48 85.6811 41C80.1995 35.5184 66.6811 22.4487 49.1811 22Z" fill="white"/>
<path d="M70.1812 45C70.1812 55.4934 61.6746 64 51.1812 64C40.6877 64 32.1812 55.4934 32.1812 45C32.1812 34.5066 40.6877 26 51.1812 26C61.6746 26 70.1812 34.5066 70.1812 45Z" fill="#FAA0BF" fill-opacity="0.5"/>
<path d="M58.1812 45C58.1812 48.866 55.0471 52 51.1812 52C47.3152 52 44.1812 48.866 44.1812 45C44.1812 41.134 47.3152 38 51.1812 38C55.0471 38 58.1812 41.134 58.1812 45Z" fill="#F871A0"/>
<path d="M61.1812 39C61.1812 41.2091 59.3903 43 57.1812 43C54.972 43 53.1812 41.2091 53.1812 39C53.1812 36.7909 54.972 35 57.1812 35C59.3903 35 61.1812 36.7909 61.1812 39Z" fill="white"/>
<path d="M15.8713 15.8397C17.1713 17.6397 21.6713 22.8397 25.9713 27.3397L33.7713 35.6397L62.1713 62.8397L64.1515 64.7959C62.7405 65.3282 61.3971 65.8033 60.3713 66.1397C54.2713 68.1397 42.3713 67.6397 35.9713 65.1397C25.7713 61.2397 12.9712 49.1397 12.9712 44.0397C12.9712 43.1397 13.5713 40.1397 15.5713 37.4397L19.0713 32.5397L15.0713 37.0397C8.27134 44.4397 10.1712 50.5397 22.4712 60.5397C34.8712 70.5397 46.6713 72.9397 60.1713 69.5397C62.8308 69.0331 65.0804 68.3483 66.9879 67.5982L70.4714 71.0397C70.9714 71.5396 74.4713 74.8397 78.7713 78.6397L86.4713 85.5397L80.0713 78.0397C76.4713 73.9397 72.9712 69.5397 71.6713 68.3397L69.7327 66.3721C71.0489 65.7097 72.1483 65.0432 73.0713 64.4397C78.0713 61.8397 87.4713 52.5397 89.4713 48.0397C91.8713 42.7397 90.9713 40.3397 84.5713 33.7397C77.6713 26.7397 67.1713 21.4397 57.1713 19.9397C50.4712 18.9346 43.2712 20.3397 42.9712 20.5397C42.6712 20.8397 48.9712 19.6836 53.6713 20.6397C65.6713 22.4397 77.3713 28.8397 84.0713 37.3397C86.2713 40.0397 87.9713 42.7397 87.9713 43.4397C87.9713 47.3397 79.2712 56.9397 71.4712 61.5397C70.5844 62.1161 68.9113 62.8858 67.0533 63.6528L64.9712 61.5397L33.7713 31.5397C31.986 29.8397 28.7463 26.8706 21.5713 20.0397C16.7713 15.5397 12.4712 11.5397 15.8713 15.8397Z" fill="black"/>
</svg>
