<svg width="100" height="100" viewBox="0 0 100 100" fill="none" xmlns="http://www.w3.org/2000/svg">
<path d="M82.5146 38.5H16.5146L17.0146 76C17.0146 80.4 20.6813 82.8333 22.5146 83.5L75.5146 83C80.7146 83.4 82.0146 81.1667 82.0146 80L82.5146 38.5Z" fill="#FEE7EF"/>
<path d="M36.5146 23L23.5146 23.5C19.5146 23.5 16.5146 27.5 16.5146 32V38.5H83.0146V32.5C83.0146 24.5 78.348 22.8333 76.0146 23H36.5146Z" fill="#F871A0"/>
<path d="M24.5146 46.9989V47C24.5143 51 25.5146 52.5 29.5146 52.5C32.7148 52.5 34.5145 53.2335 34.5145 48C34.5145 45.8079 34.4903 43.9975 29.5146 43.5C24.515 43.0001 24.5148 44.9993 24.5146 46.9989Z" fill="#FDD0DF"/>
<path d="M43.5146 43.0777C38.5146 43.0777 38.5146 44.5777 38.5146 46.5777C38.5146 52.0777 40.4851 52.0777 43.5146 52.0777C45.5146 52.0777 48.5145 52.8112 48.5145 47.5777C48.5145 43.5 47.0321 43.0777 43.5146 43.0777Z" fill="#FDD0DF"/>
<path d="M52.5146 59.5766V59.5777C52.5143 63.5777 53.5146 65.0777 57.5146 65.0777C60.7148 65.0777 62.5145 65.8112 62.5145 60.5777C62.5145 58.3856 62.4903 56.5752 57.5146 56.0777C52.515 55.5778 52.5148 57.577 52.5146 59.5766Z" fill="#FDD0DF"/>
<path d="M72.0146 43C67.014 42.5 66.5144 44.5778 66.5142 46.5778C66.5139 50.5778 66.0146 52.5001 70.0146 52.5001C73.2148 52.5001 76.0147 53.7335 76.0146 48.5C76.0146 46.3078 76.9903 43.4976 72.0146 43Z" fill="#FDD0DF"/>
<path d="M57.5146 43.0777C52.5223 43.6545 52.5148 45.5778 52.5146 47.5777C52.5143 51.5778 53.5146 52.0777 57.5146 52.0777C60.7148 52.0777 62.5145 51.5 62.5145 47.5777C62.5145 45.3855 62.5145 42.5 57.5146 43.0777Z" fill="#FDD0DF"/>
<path d="M30.0146 56.5C25.0198 57.055 24.5148 58.5778 24.5146 60.5778C24.5143 64.5778 24.5146 65.5001 28.5146 65.5001C31.7148 65.5001 34.5145 65.8113 34.5145 60.5778C34.5145 58.3856 34.5145 56 30.0146 56.5Z" fill="#FDD0DF"/>
<path d="M38.5146 60.5778C38.5143 64.5778 40.5144 65 44.5144 65C47.7146 65 48.5144 64.7335 48.5144 59.5C48.5144 57.3078 47.8958 56.5849 43.0144 55.5C38.5152 54.5001 38.5148 58.5777 38.5146 60.5778Z" fill="#FDD0DF"/>
<path d="M66.5146 60.5765V60.5777C66.5143 64.5777 67.5146 65.0778 71.5146 65.0778C74.7148 65.0778 76.5147 64.7335 76.5146 59.5C76.5146 57.3078 76.4903 56.5752 71.5146 56.0777C66.5151 55.5778 66.5148 58.5765 66.5146 60.5765Z" fill="#FDD0DF"/>
<path d="M29.5146 69.0777C24.5223 69.6545 24.5148 70.5777 24.5146 72.5777C24.5142 78.0777 25.6918 79.2549 29.5146 78.0777C33.0146 77 34.5145 78.0777 34.5145 73.5777C34.5145 71.3855 34.5145 68.5 29.5146 69.0777Z" fill="#FDD0DF"/>
<path d="M38.5146 71.9989V72C38.5143 76 39.0146 78.0001 43.0146 78.0001C46.2148 78.0001 48.5147 79.2335 48.5146 74.0001C48.5146 71.8079 48.4903 69.5753 43.5146 69.0778C38.5149 68.5779 38.5148 69.9995 38.5146 71.9989Z" fill="#FDD0DF"/>
<path d="M57.5146 68.4999C52.5223 69.0768 52.5148 72 52.5146 73.9999C52.5143 78 54.5146 78 58.5146 78C61.7148 78 62.5147 77.2334 62.5146 71.9999C62.5146 69.8078 62.5146 67.9222 57.5146 68.4999Z" fill="#FDD0DF"/>
<path d="M73.0146 69.0001C68.014 68.5001 66.5149 69 66.5146 72.5778C66.5143 76.5778 68.5146 78 72.5146 78C75.7148 78 76.5145 78.8113 76.5145 73.5778C76.5145 71.3856 77.9903 69.4976 73.0146 69.0001Z" fill="#FDD0DF"/>
<path d="M36.0146 21C36.0146 17 29.5146 16 29.5146 21V27C29.5146 31.5 36.0146 29.5 36.0146 26.5V21Z" fill="#FDD0DF"/>
<path d="M70.5146 22C70.5146 14 65.0146 18.5 65.0146 22V26C65.0146 30 70.5146 28.5 70.5146 26V22Z" fill="#FDD0DF"/>
<path d="M64.5146 21.5H44.0149L63.0146 20C63.3481 18.1667 64.8925 14 68.5146 14C71.5146 14 72.848 18 73.0146 20C82.5146 19.5 84.0146 25 84.0146 28.5L85.0146 78C84.5146 84.5 80.0146 86 77.0146 86H26.0153C18.5146 86 15.5146 80 15.5146 76C15.6813 62.3333 15.4153 36.7 15.0153 29.5C14.6153 22.3 22.1819 21.1667 26.0153 21.5C18.8153 21.5 16.1361 25 16.5146 28.5L17.5146 74.5C17.5146 83 22.515 83.5 26.0153 83.5L73.5149 83C80.5146 83 82.0149 81.5 82.0149 77.5V33C82.0149 21.5 78.5146 21.5 71.0149 21.5C71.0149 18.5 70.5341 16 68.0146 16C65.5146 16 64.6813 19.5 64.5146 21.5Z" fill="black"/>
</svg>
