<svg width="50" height="50" viewBox="0 0 100 100" fill="none" xmlns="http://www.w3.org/2000/svg">
<path d="M51.8076 77.5C51.8076 80.5376 49.3452 83 46.3076 83C43.2701 83 40.8076 80.5376 40.8076 77.5C40.8076 74.4624 43.2701 72 46.3076 72C49.3452 72 51.8076 74.4624 51.8076 77.5Z" fill="#FDD0DF"/>
<path d="M79.8076 77.5C79.8076 80.5376 77.3452 83 74.3076 83C71.2701 83 68.8076 80.5376 68.8076 77.5C68.8076 74.4624 71.2701 72 74.3076 72C77.3452 72 79.8076 74.4624 79.8076 77.5Z" fill="#FDD0DF"/>
<path d="M33.1231 45.5C31.5231 28.3 28.1231 22 24.6231 22H16.6231C12.6235 22 13.1231 16 16.6231 16H27.123L36.9151 22.5H88.1231C91.623 22.5 91.4564 27.1667 90.623 29L81.623 51C79.623 56 76.623 56.5 75.123 56.5H43.6231C39.123 56.5 39.623 64 43.6231 64H79.623C85.7378 64 85.623 72 79.123 72H46.6231C39.286 71.8871 34.9231 69 34.1231 65C33.8485 63.6272 33.7537 52.2794 33.1231 45.5Z" fill="#F871A0"/>
<path d="M42.8076 47.6907C41.6076 44.4907 40.9743 37.1907 40.8076 33.6907C40.8076 30.1907 45.3076 30.0642 45.3076 33.6907C45.3076 38.1907 45.8076 42.1906 46.8076 46.1906C47.8437 50.3351 43.8706 50.5254 42.8076 47.6907Z" fill="#FDD0DF"/>
<path d="M71.1196 47.6473C72.5758 44.5554 73.8007 37.3311 74.2514 33.8562C74.536 30.3678 70.0612 29.8758 69.7663 33.4903C69.4004 37.9754 68.5768 41.9215 67.2548 45.8269C65.8851 49.8734 69.8295 50.3862 71.1196 47.6473Z" fill="#FDD0DF"/>
<path d="M55.3076 46.6907L55.8076 34.1906C55.8076 30.6906 60.8076 29.6906 60.8076 33.1906L60.3076 46.1907C60.3076 49.1907 55.3076 49.6907 55.3076 46.6907Z" fill="#FDD0DF"/>
<path d="M9.20757 16.5C6.00757 21.4 9.50757 27 15.7076 27C17.8076 27 20.1076 27.6 20.7076 28.4C22.4076 30.4 25.7076 46.6 26.4076 56.6C26.8076 61.5 27.7076 66.7 28.5076 68.2C29.9076 71 34.4076 74 37.3076 74C38.3076 74 38.8076 75 38.8076 77.2C38.8076 79 39.2076 81 39.6076 81.6C40.6076 83.1 44.3076 85 46.3076 85C48.4076 85 52.3076 81.1 52.3076 79C52.3076 77.5 52.3076 77.6 50.8076 80C49.3076 82.4 46.0076 82.5 43.8076 81.5C40.7076 80 42.0076 75.4 45.1076 74.6C46.3076 74.3 51.8076 74 57.4076 74H67.4076V77.6C67.8076 85 75.8076 87 79.6076 82.7C81.2076 80.5 80.8076 78.5 80.3076 77C79.8076 75.5 79.8076 76 79.8076 77C79.8076 78 76.6076 81.5 74.3076 81.5C71.4076 81.5 70.3076 79.2 70.3076 76C70.3076 75 71.6076 73.5 74.3076 73.5C78.8076 73.5 81.7563 71.5 81.3076 68C80.8589 64.5 77.3076 63.5 67.8076 64C58.3075 64.5 60.3076 64.7 60.3076 64.7L68.9076 64.9C77.9076 65 79.9839 67.2263 79.2076 69.4C78.4313 71.5737 76.2076 71 59.2076 71C32.0076 71 31.5076 70.7 30.4076 54C29.8076 43.8 25.8076 28.1 23.8076 26C23.0076 25.2 20.4076 23.8 17.8076 23.5C13.8076 23.1 11.3076 23.3169 11.3076 20.5C11.3076 17.6831 12.3076 16.5 19.3076 17C26.3076 17.5 26.2076 18.2 30.6076 21.2L35.3076 24L58.3076 24.2C71.0076 24.1 82.3076 24.2 83.4076 24.5C86.9076 25.3 87.0076 27.7 83.8076 35.2C82.1076 39.1 80.9076 42.4 81.1076 42.6C81.9076 43.5 88.0076 29.1 87.6076 27C87.0076 22.7 83.9076 22.1 59.5076 21.4L36.7076 20.8L31.8076 17.4C27.2076 14.2 26.3076 14 18.8076 14C11.4076 14 10.7076 14.2 9.20757 16.5Z" fill="black"/>
</svg>
