<svg width="50" height="50" viewBox="0 0 100 100" fill="none" xmlns="http://www.w3.org/2000/svg">
<path d="M86 48C86 68.4345 69.4345 85 49 85C28.5655 85 12 68.4345 12 48C12 27.5655 28.5655 11 49 11C69.4345 11 86 27.5655 86 48Z" fill="#F871A0"/>
<path d="M77 72C73.4505 67.9628 69.5695 64.035 64.6511 61.8654C59.7326 59.6958 54.4005 58.624 49.0257 58.7246C43.6509 58.8252 38.3626 60.0958 33.5288 62.4479C28.695 64.8 24.4318 68.1772 21.0358 72.3444L33.5288 82.5L37.5 84L41.5 84.5L46 85H50.5L56 84.5L58.5 84L62.5 82.5L66 81L69.5 79L73 76.5L75 74.5L77 72Z" fill="#FDD0DF"/>
<path d="M53.9001 16.1001C66.1001 17.7001 77.0001 25.2001 82.0001 35.5001C84.0001 39.7001 85.7001 42 85.7001 50.5C85.5 59.5 84 61 82 66.5C74.5 81.9 59.7001 88.4001 42.6001 84.5001C29.2 81.6001 20.8 73.8001 16.9 60.8001C14.3 52.2001 14.8 44.3001 18.4 36.3001C19.8 33.4001 20.7 31.0001 20.4 31.0001C20.1 31.0001 18.5 34.0001 16.7 37.7001C14.1 43.3001 13.6 45.8001 13.6 51.5001C13.5 75.7001 30.6 91.4001 55.3001 89.7001C68.9001 88.8001 79.9001 81.1001 85.7001 68.2001C88.9001 61.4001 89.9001 49.8001 88.0001 42.0001C86.4001 35.3001 80.3001 26.3001 74.5001 22.1001C69.2001 18.3001 58.4001 14.9001 52.0001 15.1001C47.9001 15.2001 48.0001 15.3001 53.9001 16.1001Z" fill="black"/>
<path d="M64 41C64 49.2843 57.2843 56 49 56C40.7157 56 34 49.2843 34 41C34 32.7157 40.7157 26 49 26C57.2843 26 64 32.7157 64 41Z" fill="#FDD0DF"/>
</svg>
