<svg width="100" height="100" viewBox="0 0 100 100" fill="none" xmlns="http://www.w3.org/2000/svg">
<path d="M13.4214 75.1302C11.9145 76.0648 11.7136 76.9994 12.3164 79.8966C13.7228 87.1864 12.7182 86.9995 49.185 86.9995C86.4555 86.9995 86.7569 86.9995 85.7523 80.177C85.4509 78.2143 84.7477 75.9713 84.0445 75.4105C82.2362 73.7283 15.8324 73.4479 13.4214 75.1302Z" fill="#C20E4D"/>
<path d="M14.4999 81.4999C13.8999 78.3999 14.2099 76.3302 15.4996 75.9999C15.7368 75.9392 20.4992 75.4999 20.9996 75.9999C20.4996 75.9999 16.1714 76.9152 16.0001 76.9999C15.6078 77.1939 14.9136 78.1027 15.5001 80.9999C16.8685 88.2897 15.5001 87 51.1798 87.5C87.443 87.5 86.9996 88 86.4996 81C86.2063 79.0373 86 78.1665 85.0001 77.4999C83.5001 76.4999 47.4996 75.5 53.9999 75.1172C70.0161 75.2363 85.1511 75.1515 85.9996 76C86.6996 76.6 87.6996 79.4 87.9996 81.5C88.9996 88.8 88.2798 89.5 51.1798 89.5C14.9996 89 15.4996 89.9999 14.4999 81.4999Z" fill="black"/>
<path d="M33.0087 46.5112H41.1789V15.4389C41.1789 9.52037 53.063 9.52036 53.063 15.4389V46.5112H61.976C65.2441 46.5112 63.8329 48.9773 62.7187 50.2103L48.6066 66.8562C47.1211 68.9277 45.5118 67.7193 44.8928 66.8562L31.8946 50.2103C30.0375 47.621 31.3994 46.5112 33.0087 46.5112Z" fill="#FAA0BF"/>
<path d="M43.1737 22.345L43.1742 47.8118C37.0521 47.2213 37.6087 49.6572 38.6521 51.1336L43.1742 55.9317C45.6095 58.1462 46.6522 56.4238 47 55.1935V22.345C47 20.5517 43.1737 20.5517 43.1737 22.345Z" fill="#FEE7EF"/>
<path d="M43.4776 12.4112C42.6543 14.0452 42.5795 23.9235 43.4776 30.6823C43.9266 34.3959 44.0015 33.5047 44.1511 25.3346C44.1511 19.987 44.4505 15.085 44.675 14.4165C45.1989 13.0054 51.71 12.7825 53.0571 14.1195C53.7306 14.7879 53.9552 19.6899 53.9552 31.5736V48.1364H59.194C62.1127 48.1364 64.4328 48.3592 64.4328 48.582C64.4328 48.8049 61.6637 52.2957 58.2959 56.4549C54.8532 60.54 51.6351 64.5507 51.0364 65.2934C50.5125 66.0361 49.6145 66.7046 49.0906 66.7046C47.7435 66.7046 39.5859 57.7919 35.9188 52.3699C34.3471 49.9189 33 48.2849 33 48.6563C33 49.8447 38.7627 58.4603 43.2531 63.9565C49.1654 71.2352 49.7641 71.0867 58.8946 60.54C68.3993 49.6219 68.6238 49.2505 67.576 47.0223C66.7528 45.314 66.3037 45.1655 61.8882 45.1655H57.0236L56.7991 29.3454C56.6494 17.2389 56.35 13.1539 55.5268 12.2626C54.7784 11.2971 53.2816 11 49.3899 11C45.1241 11 44.1511 11.2228 43.4776 12.4112Z" fill="black"/>
</svg>
