<svg width="100" height="100" viewBox="0 0 100 100" fill="none" xmlns="http://www.w3.org/2000/svg">
<path d="M38.4045 18.218C38.4745 16.058 36.0365 14.096 33.8605 14.843C27.4665 17.037 21.0735 19.231 14.6795 21.425C12.1555 22.291 12.2605 24.25 12.4525 30.25C12.0775 46.07 11.8455 80.759 12.3675 81.763C12.4155 83.41 13.0775 84.975 14.9415 85.402C16.2785 85.708 17.4415 85.1 18.6195 84.584C19.6305 84.141 30.8135 79.627 33.4695 78.722C34.1085 78.504 34.6135 78.16 35.0085 77.747C36.0215 77.251 36.7835 76.265 36.8145 74.752C37.0055 65.326 37.1965 55.899 37.3875 46.473C37.4575 46.199 37.5065 45.908 37.5175 45.588C37.8125 36.465 38.1085 27.342 38.4045 18.218Z" fill="#FDD0DF"/>
<path d="M61.0413 80.65C61.0793 80.48 61.1113 80.308 61.1043 80.123C61.0973 79.951 61.1033 79.779 61.0973 79.607C61.3613 77.335 61.4443 75.065 61.2383 72.775C61.2723 72.594 61.2893 72.4 61.2833 72.192C60.9473 60.106 60.6123 48.019 60.2763 35.933C60.3823 35.682 60.4663 35.409 60.5003 35.099C60.8043 32.315 61.2103 29.522 61.4063 26.729C61.6053 23.899 60.0613 21.849 57.5073 20.668C52.2343 18.231 46.7163 16.237 41.1393 14.578C40.6283 14.426 40.0973 14.464 39.6153 14.638C38.2313 14.454 36.6503 15.249 36.5623 17.019C36.4963 18.351 36.4693 19.683 36.4683 21.014C36.0703 37.839 35.7483 54.672 36.2153 71.498C36.0973 71.782 36.0283 72.088 36.0293 72.408C36.0343 73.481 36.0393 74.553 36.0433 75.626C36.0493 77.011 37.0063 77.785 38.0893 77.978C38.1633 78.011 38.2343 78.05 38.3113 78.077C41.7733 79.312 45.2343 80.547 48.6963 81.782C52.1073 82.999 55.4453 84.328 59.0823 84.724C60.4613 84.874 61.6463 83.468 61.6463 82.224C61.6463 81.578 61.4113 81.055 61.0413 80.65Z" fill="#FAA0BF"/>
<path d="M82.0589 14.461C75.4009 16.655 68.7419 18.849 62.0839 21.043C59.4649 21.906 60.5319 24.438 60.3309 27.053C59.9429 42.833 59.1979 80.44 59.7189 81.46C59.7869 83.25 60.5839 84.937 62.6979 85.184C64.0149 85.337 65.1319 84.739 66.3059 84.245C67.3589 83.802 82.7859 77.917 83.1889 77.501C84.2259 76.997 85.0069 75.99 85.0399 74.44C85.2389 65.022 86.3879 27.029 86.6959 17.906C86.7719 15.678 84.2809 13.729 82.0589 14.461Z" fill="#FDD0DF"/>
<path d="M64.6034 21.702C64.6034 21.702 64.0694 21.888 63.0064 21.843C62.4784 21.819 61.8204 21.751 61.0694 21.558C60.3164 21.389 59.5424 20.908 58.5864 20.501C54.8264 18.774 49.0954 16.875 41.7834 14.583C41.3434 14.469 41.0344 14.484 40.7024 14.462C40.3754 14.452 40.0484 14.449 39.7204 14.453C39.0634 14.46 38.3984 14.487 37.7124 14.549C37.3684 14.58 37.0204 14.621 36.6494 14.691C36.4764 14.72 36.2424 14.783 36.0744 14.837L35.5874 14.993C34.9354 15.202 34.2734 15.414 33.6014 15.628C30.9104 16.493 28.0644 17.408 25.0794 18.368C23.5834 18.852 22.0534 19.346 20.4894 19.852C19.7064 20.106 18.9154 20.362 18.1164 20.621C17.7164 20.751 17.3144 20.881 16.9104 21.012C16.4564 21.174 15.9264 21.364 15.4414 21.746C14.9554 22.111 14.5404 22.638 14.2984 23.177C14.0704 23.707 13.9234 24.242 13.8554 24.729C13.6984 25.721 13.6854 26.639 13.6744 27.556C13.6684 29.407 13.7474 31.136 13.6364 32.979C13.3834 40.352 13.1984 48.26 13.0704 56.538C13.0084 60.68 12.9574 64.918 12.9424 69.244C12.9444 71.41 12.9474 73.595 12.9494 75.799C12.9654 76.907 12.9804 78.019 12.9964 79.136L13.0464 80.836L13.0944 81.721C13.0784 81.874 13.1894 82.693 13.3814 83.203L13.1914 82.472C13.2234 83.404 13.3884 84.438 13.9694 85.46C14.5284 86.49 15.6524 87.341 16.7614 87.635C17.3024 87.803 17.9404 87.875 18.5214 87.837C19.1084 87.799 19.6454 87.665 20.1204 87.508C21.0864 87.175 21.7274 86.814 22.4854 86.544C25.3654 85.403 28.2204 84.273 31.0454 83.154C32.4574 82.592 33.8614 82.032 35.2574 81.476L36.3034 81.058L36.5444 80.964L36.7234 80.912L37.2174 80.791C37.9064 80.634 38.6234 80.492 39.3054 80.387C39.6314 80.335 40.0154 80.29 40.2174 80.281C40.2344 80.283 40.2114 80.27 40.2534 80.288L40.6944 80.444C41.3974 80.69 42.0974 80.936 42.7964 81.181C44.1934 81.67 45.5814 82.155 46.9604 82.638C49.7384 83.591 52.3864 84.566 55.1604 85.475C56.5494 85.915 57.9694 86.307 59.4244 86.576C59.7884 86.643 60.1524 86.704 60.5194 86.754L61.0704 86.824C61.2634 86.844 61.4004 86.87 61.7094 86.883C62.4864 86.899 63.1594 86.88 63.8684 86.859C65.2784 86.803 66.6324 86.745 68.1094 86.526C68.4654 86.468 68.9134 86.391 69.4164 86.188L70.3124 85.821C70.9294 85.573 71.5434 85.326 72.1534 85.08C74.5974 84.091 76.9944 83.122 79.3394 82.173C80.5094 81.689 81.6654 81.211 82.8094 80.738C83.3814 80.495 83.9494 80.254 84.5144 80.014L85.3654 79.638L85.8084 79.429L85.9194 79.377L85.9744 79.351L86.0934 79.285C86.2524 79.193 86.4054 79.085 86.5434 78.971L86.2164 79.208C87.4214 78.636 88.3364 77.397 88.5564 76.146C88.6144 75.837 88.6534 75.528 88.6574 75.228L88.6604 74.482C88.6594 73.999 88.6594 73.52 88.6584 73.043C88.6544 71.137 88.6504 69.274 88.6464 67.457C88.6324 63.833 88.6184 60.393 88.6054 57.157C88.5594 50.719 88.5184 45.097 88.4854 40.458C88.3764 31.262 88.3134 25.966 88.3134 25.966C88.3134 25.966 88.0884 31.253 87.6974 40.434C87.5214 45.069 87.3094 50.685 87.0654 57.117C86.9534 60.351 86.8344 63.789 86.7084 67.412C86.6484 69.228 86.5874 71.091 86.5244 72.997C86.5094 73.474 86.4934 73.954 86.4784 74.436L86.4524 75.141C86.4444 75.327 86.4124 75.502 86.3764 75.671C86.2154 76.343 85.8104 76.832 85.1994 77.116L85.6544 78.11C85.5074 77.98 85.3654 77.844 85.2284 77.704L85.0264 77.491C84.9814 77.443 84.8474 77.292 84.8804 77.324L84.8934 77.299C84.9034 77.283 84.9164 77.271 84.9304 77.262L84.9514 77.252L84.9034 77.273L84.8084 77.314L84.4264 77.48L83.6004 77.815C83.0374 78.035 82.4704 78.256 81.9004 78.478C80.7504 78.915 79.5874 79.358 78.4104 79.805C76.0444 80.69 73.6264 81.595 71.1614 82.518C70.5434 82.75 69.9214 82.983 69.2974 83.216L68.3314 83.586C68.2094 83.626 67.9944 83.675 67.6854 83.715C66.4964 83.866 65.1314 83.906 63.8034 83.927C63.1434 83.934 62.4394 83.935 61.8344 83.91C61.7974 83.911 61.5934 83.882 61.4424 83.861L60.9634 83.791C60.6434 83.741 60.3234 83.681 60.0024 83.615C58.7184 83.352 57.4284 82.974 56.1234 82.535C53.5244 81.634 50.7814 80.58 48.0464 79.601C46.6734 79.102 45.2914 78.599 43.9014 78.093C43.2054 77.841 42.5074 77.587 41.8074 77.333L41.5444 77.238L41.1994 77.106C40.9084 76.947 40.4904 76.984 40.1424 76.967C39.5974 76.991 39.2384 77.041 38.8224 77.099C38.0224 77.215 37.2624 77.359 36.4794 77.531L35.8734 77.676L35.5084 77.78C35.3764 77.822 35.3184 77.851 35.2204 77.888L34.1534 78.3C32.7284 78.857 31.2954 79.418 29.8544 79.981C26.9744 81.114 24.0654 82.259 21.1294 83.414C20.3704 83.69 19.5874 84.095 19.0384 84.274C18.4524 84.463 18.1144 84.483 17.7214 84.367C17.3124 84.24 17.1054 84.076 16.9104 83.756C16.7184 83.436 16.5954 82.927 16.5784 82.372L14.9924 82.366C15.2944 82.192 15.6024 82.028 15.9144 81.876L16.3874 81.656C16.4444 81.632 16.4084 81.65 16.4224 81.645L16.4504 81.655C16.4664 81.663 16.4764 81.673 16.4814 81.684C16.4894 81.768 16.4724 81.594 16.4674 81.463L16.4214 80.679L16.3634 79.048C16.3404 77.948 16.3164 76.852 16.2934 75.76C16.2704 73.567 16.2464 71.393 16.2234 69.239C16.2064 64.928 16.1894 60.698 16.1724 56.56C16.1864 48.303 16.1994 40.418 16.2124 33.009C16.2744 31.157 16.1394 29.256 16.0944 27.54C16.0544 25.845 16.0914 24.001 16.8254 23.528C17.0084 23.36 17.2914 23.242 17.6284 23.107C18.0274 22.963 18.4254 22.819 18.8204 22.676C19.6104 22.39 20.3924 22.106 21.1664 21.826C22.7114 21.265 24.2234 20.716 25.7004 20.179C28.6464 19.103 31.4534 18.078 34.1094 17.109C34.7714 16.866 35.4244 16.627 36.0674 16.391L36.5474 16.215C36.7014 16.161 36.7934 16.131 36.9514 16.095C37.2394 16.027 37.5544 15.974 37.8694 15.933C38.5004 15.848 39.1384 15.793 39.7624 15.759C40.0734 15.748 40.3814 15.737 40.6864 15.726C40.9814 15.726 41.3054 15.724 41.4664 15.763C48.8234 17.723 54.6354 19.327 58.4464 20.835C59.4004 21.181 60.2204 21.628 61.0204 21.764C61.8014 21.919 62.4694 21.948 63.0044 21.941C64.0824 21.922 64.6034 21.702 64.6034 21.702Z" fill="black"/>
</svg>
