<svg width="50" height="50" viewBox="0 0 100 100" fill="none" xmlns="http://www.w3.org/2000/svg">
<path d="M43.2981 14.1417L34.2981 35.6417H12.2981C9.2982 35.6417 5.79829 39.6417 9.79808 43.1417L27.2982 58.1417L19.7982 80.6417C18.7983 83.1417 20.7983 87.6417 26.2983 85.1417L50.7983 72.6417L69.2983 84.6417C71.2983 86.1417 75.2983 85.1417 74.2983 81.6417L68.2983 56.6417L85.2983 44.1417C87.2983 42.6417 89.7983 38.6417 85.298 37.6417L60.2983 33.6417L50.7983 14.1417C47.5983 8.5417 44.298 11.6417 43.2981 14.1417Z" fill="#F2B71F"/>
<path d="M56.7983 17.3127C59.2983 23.3127 63.2983 32.8127 64.2983 34.3127C65.4983 34.7127 72.0983 35.8127 77.2983 36.8127C92.4983 39.7127 92.8983 41.2127 80.2983 50.3127C75.3983 53.9127 71.2983 57.5127 71.2983 58.3127C71.2983 59.1127 72.6 64.4 74 69.5C75.4 74.6 76.2983 79.8127 76.2983 81.4127C76.2983 86.1127 71.9 85.5 62 79C57.4 76 53.1983 73.3127 52.5983 73.3127C51.8983 73.3127 46.4 76.6 40 80C28.5 85.9 24.2983 86.2127 24.2983 82.8127C24.2983 82.1127 26.0983 76.4127 28.2983 70.2127L32 59L30 57.5C28.8 56.4 24.7 53.5 20.5 50C16.3 46.6 12.5 43.5 12.5 40.7127C12.6 37.6127 14.2983 37.0127 22.8983 36.3127L31.7983 35.6127L23.4983 35.4127C13.3983 35.3127 11 37.3023 11 40.7127C11 43.4127 12.2983 44.9127 16.5983 48.9127C19.3983 51.7127 23.3983 55.1127 25.3983 56.6127L29.0983 59.3127L25.1983 69.9127C20.6983 82.1127 20.3983 85.5127 23.4983 87.7127C26.9983 90.2127 29.2983 89.7127 40.7983 83.8127C46.7983 80.8127 52.0983 78.3127 52.6983 78.3127C53.2983 78.3127 56.4983 80.1127 59.7983 82.3127C68.2983 87.9127 73.6983 89.9127 76.7983 88.5127C81.5983 86.3127 81.7983 80.8127 77.3983 66.0127L75.3983 59.2127L83.0983 53.1127C92.0983 46.0127 92.2983 45.8127 92.2983 41.7127C92.2983 37.9127 90.5983 36.4127 86.0983 35.8127C84.2983 35.5127 78.7983 34.8127 73.9983 34.2127L65.1983 33.1127L60.6983 24.2127C56.3983 15.6127 55.2983 12.7127 56.7983 17.3127Z" fill="black"/>
</svg>
