<svg width="100" height="100" viewBox="0 0 100 100" fill="none" xmlns="http://www.w3.org/2000/svg">
<path d="M32.5799 29.988C32.5689 30.038 32.5529 30.087 32.5389 30.136C32.5849 30.033 32.5919 29.991 32.5799 29.988Z" fill="#FDD0DF"/>
<path d="M32.5359 28.695C32.5259 28.666 32.5099 28.644 32.4989 28.616C32.5009 28.591 32.5019 28.565 32.5039 28.54C32.5419 28.029 32.5879 27.518 32.6299 27.007C32.7389 25.671 32.8459 24.329 32.8439 22.987C32.8419 22.15 32.8159 21.225 32.5559 20.399C32.5879 20.235 32.6029 20.065 32.5949 19.892C32.5349 18.551 31.4959 17.375 30.0949 17.392C28.3559 17.413 26.6219 17.396 24.8859 17.525C24.5499 17.55 24.2139 17.637 23.8999 17.771C23.8919 17.774 23.8839 17.778 23.8759 17.781C23.3189 18.024 22.8419 18.43 22.5979 18.995C22.4429 19.314 22.3489 19.669 22.3489 20.056C22.3499 24.017 22.3999 27.979 22.3409 31.94C22.3219 33.186 23.3069 34.234 24.5089 34.395C25.6439 34.548 27.0289 33.831 27.2519 32.604C27.2669 32.519 27.2849 32.435 27.3009 32.35C27.7779 32.379 28.3139 32.268 28.7679 32.022C29.0389 32.171 29.3339 32.275 29.6369 32.316C30.7469 32.465 31.8709 31.839 32.2839 30.787C32.3939 30.581 32.4779 30.362 32.5409 30.136C32.5149 30.194 32.4759 30.272 32.4209 30.372C32.4389 30.311 32.4579 30.251 32.4699 30.19C32.4929 30.08 32.5619 29.981 32.5809 29.987C32.6789 29.548 32.6799 29.096 32.5359 28.695Z" fill="#FDD0DF"/>
<path d="M81.3609 47.265C81.4189 44.963 80.4279 43.36 78.9969 42.433C78.0899 39.56 74.8329 38.021 71.9969 38.326C68.5459 31.948 59.4709 29.701 54.9279 24.222C51.8339 20.491 46.8539 22.823 45.2179 26.482C44.4839 26.878 43.8049 27.402 43.2349 28.032C40.5259 27.555 37.2029 28.973 35.8589 31.508C33.2199 30.131 29.4399 31.014 27.5659 33.672C26.8079 34.747 26.1409 35.897 25.5479 37.101C23.8739 37.371 22.3029 38.283 21.3779 39.875C20.9939 40.535 20.6809 41.204 20.4129 41.878C18.5539 42.687 17.1489 44.436 17.1849 47.143C17.3349 58.525 16.3809 69.883 16.5299 81.264C16.5819 85.247 20.2919 87.943 24.0919 87.056C24.7569 87.012 25.4209 86.972 26.0859 86.942C28.0769 86.851 30.0719 86.831 32.0639 86.809C37.5319 86.749 43.0009 86.786 48.4689 86.828C57.3969 86.897 66.3649 87.259 75.2919 86.996C75.8219 86.98 76.3159 86.879 76.7889 86.739C79.4949 86.212 81.6429 83.689 81.7149 80.811C81.9949 69.625 81.0799 58.453 81.3609 47.265Z" fill="#FDD0DF"/>
<path d="M88.16 42.46C87.533 41.453 86.5479 40.71 85.4079 40.38C85.2569 40.234 85.1019 40.088 84.9329 39.942C79.7409 35.448 73.9799 31.437 68.7009 26.973C64.4479 23.376 60.8069 19.071 56.5889 15.473C54.5479 13.732 52.4889 13.07 50.4769 13.512C50.0609 13.54 49.6369 13.666 49.2229 13.934C48.5679 14.233 47.9209 14.647 47.2819 15.189C47.1519 15.228 47.0209 15.264 46.8929 15.323C43.9939 16.648 41.2909 18.58 38.9769 20.832C36.3779 22.488 33.7469 24.112 31.2769 25.827C28.1849 27.974 25.3499 30.396 22.4939 32.797C21.7639 33.341 21.0339 33.886 20.2919 34.425C18.1629 35.974 15.9199 37.287 14.0729 39.148C14.0679 39.148 14.0619 39.146 14.0569 39.147C13.3799 39.178 12.7779 39.375 12.2389 39.791C11.7429 40.174 11.3069 40.721 11.1639 41.349C11.1279 41.615 11.0929 41.88 11.0569 42.146C11.0589 42.688 11.1949 43.192 11.4669 43.66C11.9459 44.79 12.8919 45.745 13.7199 46.634C13.9429 46.874 14.2169 47.052 14.5109 47.193C15.2679 48.463 16.7729 49.167 18.3199 48.043C29.1749 40.159 39.5409 31.623 50.5449 23.942C55.2699 28.514 60.5949 32.47 65.5619 36.765C70.2529 40.822 75.2529 45.574 80.6409 48.775C80.9839 49.06 81.3779 49.289 81.8079 49.426C83.4269 50.128 84.9149 49.272 85.5979 47.994C85.7479 47.838 85.8879 47.681 86.0199 47.523C86.6479 47.058 87.3159 46.561 87.7089 45.866C87.9479 45.443 88.0849 44.962 88.1179 44.476C88.2499 44.255 88.3559 44.024 88.3949 43.735C88.4549 43.304 88.396 42.84 88.16 42.46Z" fill="#C20E4D"/>
<path d="M48.1499 69.676C48.1749 65.635 48.2349 61.598 48.1459 57.558C48.1299 56.829 47.7909 56.313 47.3229 55.996C47.0799 55.165 46.3069 54.538 45.4099 54.537C40.8049 54.528 36.1939 54.065 31.5979 54.537C30.5699 54.643 29.6869 55.32 29.6119 56.395C29.5769 56.547 29.5539 56.708 29.5529 56.885C29.5219 65.956 29.5449 75.028 29.5969 84.099C29.5969 84.165 29.6109 84.221 29.6159 84.283C29.5029 85.261 30.1389 86.108 31.0649 86.436C32.1319 86.813 33.3639 86.837 34.4849 86.891C35.9599 86.963 37.4389 86.961 38.9159 86.948C40.3659 86.936 41.8149 86.904 43.2649 86.884C44.1559 86.871 45.0729 86.815 45.9609 86.915C47.0359 87.037 47.9609 85.909 47.9609 84.915C47.9609 84.869 47.9509 84.828 47.9479 84.783C47.9509 84.759 47.9579 84.736 47.9609 84.711C48.5289 79.72 48.1199 74.685 48.1499 69.676Z" fill="#C20E4D"/>
<path d="M72.0129 56.766C72.0099 55.524 70.9729 54.344 69.7099 54.28C69.1879 54.016 68.5759 53.927 67.9429 54.082C67.8699 54.1 67.7949 54.115 67.7209 54.13C67.4629 54.144 67.2059 54.152 66.9469 54.141C66.3849 54.117 65.8259 54.041 65.2679 53.969C63.6999 53.767 62.1379 53.63 60.5549 53.7C59.3279 53.754 57.9049 53.765 57.0709 54.743C56.6289 55.195 56.3809 55.792 56.3639 56.449C56.3109 56.761 56.2739 57.078 56.2429 57.403C56.1239 58.635 56.1419 59.884 56.1459 61.121C56.1539 63.43 56.1469 65.738 56.1469 68.047C56.1469 69.355 57.2969 70.608 58.6469 70.547C58.6809 70.546 58.7119 70.536 58.7449 70.534C58.9409 70.582 59.1449 70.614 59.3609 70.604C59.8229 70.584 60.2849 70.587 60.7479 70.588C61.4289 70.664 62.1179 70.688 62.7839 70.678C63.0209 70.674 63.2629 70.664 63.5049 70.654C64.6629 70.703 65.8209 70.757 66.9769 70.758C68.6019 70.76 70.2279 70.682 71.1819 69.13C71.5189 68.582 71.6849 67.957 71.7889 67.328C71.9079 66.853 71.9819 66.36 72.0289 65.88C72.0709 65.46 72.0809 65.036 72.0789 64.612C72.0969 64.324 72.1239 64.038 72.1319 63.748C72.1969 61.421 72.0189 59.094 72.0129 56.766Z" fill="#F871A0"/>
<path d="M44.6879 70.547C45.9749 70.547 45.9769 68.547 44.6879 68.547C43.4009 68.547 43.3979 70.547 44.6879 70.547Z" fill="#F871A0"/>
<path d="M45.6879 69.688C45.6889 69.165 45.2269 68.664 44.6879 68.688C44.6189 68.691 44.5579 68.717 44.4919 68.733C44.2839 68.713 44.0729 68.751 43.8809 68.854C43.5729 69.02 43.2949 69.304 43.1329 69.613C42.9469 69.97 42.8739 70.311 42.8329 70.708C42.7999 71.026 42.8399 71.34 42.8859 71.655C42.9199 71.89 42.9759 72.122 43.0599 72.344C43.1399 72.554 43.2369 72.723 43.4179 72.864C43.5509 72.967 43.7169 73.031 43.8869 73.055C44.0129 73.138 44.1479 73.201 44.3049 73.222C44.6679 73.271 45.0389 73.112 45.2509 72.821C45.3879 72.701 45.5009 72.554 45.5429 72.367C45.7419 71.481 45.6859 70.587 45.6879 69.688Z" fill="#F871A0"/>
<path d="M11.0239 39.662C11.0239 39.662 10.9999 39.809 10.9519 40.098C10.9469 40.242 10.8459 40.431 10.9379 40.641C11.0159 40.845 11.1369 41.079 11.2779 41.329C11.8659 42.329 12.7379 43.778 14.1359 45.562C14.1889 45.6 14.2339 45.662 14.2699 45.732C14.4949 46.1 14.8269 46.481 15.2579 46.76C15.4599 46.896 15.7529 47.027 15.9409 47.08C16.1429 47.139 16.3549 47.162 16.5649 47.148C16.6239 47.146 16.6829 47.135 16.7409 47.128C16.7899 47.132 16.7509 47.243 16.7609 47.295L16.7499 47.694C16.7419 47.958 16.7349 48.228 16.7269 48.502C16.7069 49.108 16.6869 49.736 16.6649 50.386C16.6079 51.734 16.5469 53.172 16.4829 54.696C16.3159 57.754 16.1309 61.154 15.9289 64.861C15.7269 68.579 15.5179 72.618 15.4359 76.955C15.4279 77.497 15.4209 78.044 15.4129 78.595C15.4059 79.141 15.3909 79.685 15.4449 80.363C15.5719 81.654 16.1379 82.986 17.0719 83.993C18.9679 86.034 21.8719 86.656 24.4199 86.531C29.2509 86.549 34.3149 86.481 39.6029 86.545C44.9119 86.667 50.4249 86.793 56.1089 86.924C61.8119 87.046 67.7079 87.128 73.7639 87.008L75.1859 86.978L75.5599 86.958C75.8109 86.937 76.0569 86.903 76.2949 86.858C76.5329 86.814 76.7629 86.758 76.9839 86.698L77.5389 86.56C78.0139 86.427 78.4719 86.247 78.9099 86.029C80.6519 85.139 82.0109 83.623 82.7329 81.807C83.0909 80.921 83.2699 79.854 83.2769 78.968C83.2909 78.187 83.3049 77.404 83.3189 76.619C83.3369 75.05 83.3369 73.475 83.3179 71.897C83.2719 67.436 83.1139 63.052 82.9909 58.758C82.9429 56.616 82.8949 54.491 82.8479 52.387C82.8389 51.48 82.8299 50.576 82.8209 49.678L82.8129 49.61C82.8199 49.598 82.8459 49.617 82.8679 49.613H82.8709C82.7509 49.611 83.1969 49.616 83.5209 49.553C83.8619 49.502 84.1879 49.397 84.4999 49.271C85.1219 49.011 85.6499 48.616 86.0829 48.161C86.3019 47.933 86.4879 47.683 86.6589 47.425L86.9759 46.887C87.1229 46.658 87.3449 46.391 87.6099 46.096C88.1329 45.497 88.8759 44.798 89.3899 43.666C89.6299 43.097 89.7959 42.491 89.7769 41.775C89.7619 41.07 89.5129 40.359 89.1689 39.823C88.4609 38.742 87.5969 38.198 86.8559 37.71C86.5269 37.481 86.2759 37.314 85.9539 37.07L85.0119 36.344C83.7549 35.347 82.5129 34.334 81.2869 33.323C76.3869 29.272 71.7279 25.323 67.3069 21.596C65.0989 19.733 62.9499 17.919 60.8649 16.16C59.8199 15.284 58.7909 14.421 57.7789 13.573C56.8069 12.744 55.5899 11.778 54.2149 11.33C52.8399 10.82 51.3129 10.831 50.0009 11.163C48.6799 11.507 47.5329 12.076 46.4799 12.729C44.4599 14.07 42.6799 15.379 40.9229 16.627C39.1869 17.876 37.5349 19.065 35.9739 20.188C35.3199 20.662 34.6849 21.122 34.0689 21.567C33.7929 21.766 33.5209 21.962 33.2539 22.155L33.1509 22.229C33.1249 22.239 33.0609 22.317 33.0769 22.25V22.024L33.0779 21.57C33.0759 21.267 33.0929 20.961 33.0429 20.655C33.0059 20.321 32.9699 19.992 32.9349 19.67C32.8939 19.279 32.8539 18.895 32.8139 18.52C32.7759 18.165 32.7509 17.715 32.6019 17.35C32.3289 16.598 31.7699 15.997 31.1049 15.702C30.7739 15.553 30.4209 15.481 30.0809 15.478C29.7469 15.478 29.4599 15.505 29.1599 15.517C27.9839 15.579 26.9399 15.634 26.0349 15.682C25.5839 15.706 25.1679 15.729 24.7879 15.749C24.3989 15.778 24.0569 15.89 23.7719 16.014C22.6029 16.563 22.4659 17.35 22.4529 17.306C22.4609 17.348 22.6579 16.577 23.8139 16.118C24.3749 15.86 25.1429 15.925 26.0489 15.923C26.9519 15.924 27.9939 15.926 29.1689 15.929C29.7699 15.936 30.3719 15.873 30.8849 16.163C31.4059 16.427 31.8299 16.935 32.0169 17.547C32.1219 17.861 32.1189 18.157 32.1419 18.548C32.1629 18.921 32.1839 19.301 32.2049 19.689C32.2159 20.03 32.2729 20.587 32.2749 21.1C32.2949 21.634 32.2649 22.137 32.2499 22.669C32.2409 22.936 32.2329 23.205 32.2239 23.476L32.2109 23.889C32.1809 24.008 32.2859 23.883 32.3279 23.872L32.4959 23.764C32.9519 23.47 33.4149 23.17 33.8859 22.866C34.7619 22.294 35.6649 21.704 36.5959 21.097C38.2049 20.043 39.9069 18.929 41.6959 17.757C43.4799 16.599 45.3819 15.322 47.3249 14.14C49.2489 13.039 51.5299 12.286 53.5509 13.135C54.0569 13.33 54.5489 13.604 55.0169 13.948C55.4829 14.272 55.9299 14.688 56.4349 15.135C57.4149 16.015 58.4119 16.909 59.4239 17.817C61.4539 19.64 63.5459 21.519 65.6959 23.45C70.0109 27.308 74.5669 31.375 79.4089 35.553C80.6219 36.596 81.8549 37.645 83.1279 38.694L84.1089 39.48C84.4329 39.738 84.8569 40.036 85.1989 40.28C85.8239 40.683 86.3469 41.123 86.5319 41.455C86.6269 41.62 86.6529 41.723 86.6559 41.853C86.6629 41.973 86.6059 42.193 86.5189 42.39C86.3409 42.796 85.8679 43.311 85.2619 43.952C84.9599 44.28 84.6229 44.652 84.3019 45.131C84.2209 45.244 84.1449 45.383 84.0689 45.511L83.9649 45.684C83.8979 45.776 83.8309 45.869 83.7509 45.945C83.5959 46.101 83.4229 46.224 83.2529 46.289C83.1679 46.318 83.0849 46.349 83.0009 46.355C82.9029 46.368 82.9219 46.401 82.3569 46.261L82.1969 46.202C81.9179 46.102 81.6169 45.958 81.3589 45.902L80.9589 45.792C80.8559 45.79 80.7699 45.807 80.6749 45.814C80.4419 45.792 80.4149 45.944 80.3309 46.049C80.2579 46.168 80.1639 46.232 80.1369 46.476C79.9659 47.291 79.7949 48.108 79.6239 48.927C79.5889 49.142 79.5139 49.31 79.5309 49.587L79.5299 50.033L79.5269 50.826L79.5289 52.418C79.5379 54.545 79.5729 56.688 79.6219 58.845C79.7169 63.159 79.8589 67.528 79.9049 71.934C79.9229 73.494 79.9249 75.044 79.9109 76.585C79.8989 77.355 79.8879 78.123 79.8759 78.889C79.8659 79.55 79.7769 80.026 79.5729 80.576C79.1649 81.624 78.3509 82.533 77.3799 83.035C77.1359 83.158 76.8859 83.259 76.6299 83.333L76.4369 83.38L76.0819 83.473C75.9369 83.514 75.7989 83.548 75.6649 83.574C75.5309 83.6 75.4019 83.619 75.2759 83.63L75.0839 83.642L73.6789 83.683C67.6949 83.855 61.8369 83.852 56.1459 83.827C50.4549 83.798 44.9309 83.751 39.6129 83.788C34.2909 83.852 29.1719 84.062 24.3139 84.195C23.1439 84.258 22.1339 84.226 21.1279 83.939C20.1359 83.679 19.2569 83.194 18.6009 82.542C17.9549 81.883 17.5529 81.045 17.4219 80.126C17.3709 79.694 17.3559 79.133 17.3449 78.581C17.3329 78.036 17.3209 77.494 17.3089 76.957C17.2319 72.659 17.2799 68.629 17.3249 64.91C17.3729 61.191 17.4239 57.782 17.4249 54.721C17.4159 53.192 17.4069 51.749 17.3989 50.396C17.3859 49.697 17.3739 49.022 17.3629 48.37C17.3549 48.016 17.3469 47.669 17.3389 47.328L17.3269 46.829C17.3139 46.761 17.3489 46.636 17.2959 46.615C17.2329 46.603 17.1709 46.603 17.1079 46.583C16.7819 46.626 16.4479 46.633 16.1539 46.6C15.8509 46.553 15.7039 46.468 15.4999 46.36C15.1229 46.141 14.8259 45.844 14.5899 45.501C14.5359 45.42 14.4729 45.348 14.4049 45.302C12.9829 43.649 11.9909 42.224 11.3639 41.276C11.2069 41.034 11.0839 40.824 10.9929 40.628C10.8909 40.428 10.9799 40.243 10.9759 40.101C11.0089 39.81 11.0239 39.662 11.0239 39.662Z" fill="black"/>
</svg>
