<svg width="100" height="100" viewBox="0 0 100 100" fill="none" xmlns="http://www.w3.org/2000/svg">
<path d="M13 40.5C13 57.897 27.103 72 44.5 72C49.7287 72 54.6599 70.7261 59 68.4716L81.5 90.5C86 95 98.5 89.5 92 80.5L70.3539 58.5C73.9128 53.3978 76 47.1926 76 40.5C76 23.103 61.897 9.00001 44.5 9.00001C27.103 9.00001 13 23.103 13 40.5Z" fill="#F871A0"/>
<path d="M66 39.5C66 51.3741 56.1503 61 44 61C31.8497 61 22 51.3741 22 39.5C22 27.6259 31.8497 18 44 18C56.1503 18 66 27.6259 66 39.5Z" fill="#FEE7EF"/>
<path d="M7.17709 42.4437C5.67709 30.0437 13.8773 15.4438 25.2773 10.1438C27.9773 8.84375 31.1901 7.51101 32.2773 7.34375C38.7773 6.34375 44.5388 7.84375 41.7773 7.84375C37.7773 7.84375 33.5894 8.17739 31.7771 8.74375C23.7771 11.2438 15.0771 19.6437 12.3771 27.5437C10.4771 33.0437 10.2771 41.5438 11.9771 47.0438C13.4771 52.2438 20.5771 60.0437 26.0771 62.6437C32.9771 65.8438 38.7771 66.3438 47.4771 64.2438L55.0771 62.4437L66.1771 74.0437C74.1771 82.4437 78.2771 85.9437 80.9771 86.8438C85.5771 88.2438 86.7771 87.6438 86.7771 83.6438C86.7771 81.3438 84.8771 78.3438 78.3771 70.5437C73.7771 64.9437 68.8771 59.2438 67.4771 58.0438L64.9771 55.6437L67.5771 50.6437C70.8771 44.3438 71.5771 35.2438 69.3771 28.8438C67.3771 23.1438 67.9771 22.5437 70.2771 28.0438C73.0771 34.9438 73.2771 42.4437 70.9771 49.2437L68.9771 55.2437L78.4771 65.2438C92.3771 79.8438 94.1771 83.5438 89.6771 89.2438C88.0771 91.2438 86.7771 91.8438 83.6771 91.8438C77.4771 91.8438 74.0771 89.5438 63.2771 78.2438C53.3771 67.7438 53.2771 67.7437 50.2771 68.9437C48.6771 69.5437 43.6771 70.1437 39.2771 70.1437C32.6771 70.2438 30.2771 69.7438 25.6771 67.6437C15.2771 62.8438 8.47709 53.6437 7.17709 42.4437Z" fill="black"/>
</svg>
