<svg width="100" height="100" viewBox="0 0 100 100" fill="none" xmlns="http://www.w3.org/2000/svg">
<path d="M83.223 44.5656C75.623 59.7656 62.0563 74.5657 56.223 80.0657C52.623 82.8657 51.0087 83.0656 46.7229 80.0657L46.6618 80.0229C40.8272 75.9389 15.207 58.0058 10.7232 41.0656C8.2228 29.0656 12.123 18.1656 23.723 14.5656C35.323 10.9656 44.8893 18.899 48.7227 23.0657C55.9227 11.8657 69.7227 11.3596 75.723 15.0657C82.2227 19.5657 90.823 29.3657 83.223 44.5656Z" fill="#DE333B"/>
<path d="M51.7403 87C47.9749 87 38.3069 79.8337 26.8071 68.3273C22.0554 63.6144 18.1982 58.5263 15.0735 53.6072C14.1526 52.0932 12.2445 48.2837 11.2572 42.6306C10.9519 41.4194 10.9806 38.1955 11.0331 36.735C11.2572 32.0326 13.5978 28.9541 14.3102 28.2476C15.2261 27.3391 13.8826 28.7612 12.9667 31.2846C11.2367 36.2303 12.3561 44.6078 15.6127 51.1685C20.0905 60.2525 43.09 81.7514 50.3155 83.5683C53.8774 84.4767 57.9481 81.6505 66.4966 72.6674C88.8855 49.1498 93.1598 29.5687 78.3017 19.6772C73.4168 16.3464 65.0718 16.4473 58.1516 19.879C55.3021 21.393 52.4526 23.1089 51.7403 23.9164C49.4201 25.598 50.565 25.598 45.6342 21.8977C42.7847 19.98 38.1034 17.7594 35.0503 16.952C37.8927 17.6617 44.4365 19.584 47.8731 21.5949L49.3996 22.7052C50.1833 23.327 51.5367 22.0996 53.4703 20.6865C55.4039 19.1725 59.3729 17.1538 62.2224 16.2454C65.5822 15.0445 73.8759 13.649 80.1721 17.674C83.2337 19.7454 85.7772 22.431 87.359 25.5313C93.6686 37.7443 88.682 52.9853 72.2974 71.5571C63.5453 81.3477 56.1163 87 51.7403 87Z" fill="black"/>
</svg>
