<svg width="100" height="100" viewBox="0 0 100 100" fill="none" xmlns="http://www.w3.org/2000/svg">
<path d="M22.5059 79V25.5H74.5059V80C74.5059 86 69.0059 87 65.5059 87H31.5059C24.5059 86.5 22.5057 83.5 22.5059 79Z" fill="#FDD0DF"/>
<path d="M60.5059 15H37.0059C37.0059 11.5 38.0059 10 40.0059 10H57.5059C60.5059 10 60.5059 13.5 60.5059 15Z" fill="#FDD0DF"/>
<path d="M73.0055 15H24.5057C16.5059 16 15.0052 25.5 19.5055 25.5H78.0055C83.5058 25.5 80.5058 15.5 73.0055 15Z" fill="#FAA0BF"/>
<path d="M33.0057 71L32.5057 38C32.5057 33 38.5059 35.5 38.5059 38L39.5059 71C39.5059 75.5 33.0057 74 33.0057 71Z" fill="#FAA0BF"/>
<path d="M46.5059 71L47.0059 38C47.0059 32 54.5059 34 54.5059 37.5V72C54.5059 78.5 46.0059 74.5 46.5059 71Z" fill="#FAA0BF"/>
<path d="M62.0059 72L62.5059 38.5C62.5059 33.5 68.5059 35 68.5059 39.5V72.5C68.0059 77.5 62.0059 75 62.0059 72Z" fill="#FAA0BF"/>
<path d="M77.9243 17.6092C80.7243 18.7092 82.9243 21.2092 82.9243 23.6092C82.9243 25.5092 82.4243 25.9092 80.0243 25.9092C77.3243 25.9092 77.1243 26.1092 76.5243 32.0092C76.1243 35.4092 75.9243 48.5092 76.0243 61.1092C76.2243 81.6092 76.1243 84.1092 74.5243 85.7092C73.0243 87.2092 70.4243 87.4092 52.4243 87.4092C32.5243 87.4092 31.9243 87.3092 29.7243 85.1092C27.4243 82.9092 27.4243 82.3092 26.9243 54.6092L26.4243 26.4092L23.7243 26.1092C20.6243 25.7092 20.0243 23.4092 22.0243 19.6092C23.0243 17.6092 23.0243 17.6092 21.6243 18.9092C18.0243 22.5092 19.2243 27.9092 23.6243 27.9092C25.0243 27.9092 25.1243 30.5092 24.5243 53.3092C23.7243 82.4092 24.1243 85.9092 29.2243 88.9092C32.1243 90.7092 34.3243 90.9092 52.1243 90.9092C64.7243 90.9092 72.7243 90.5092 74.3243 89.8092C79.4243 87.5092 80.1243 83.8092 78.9243 65.2092C78.4243 56.0092 77.9243 43.8092 77.9243 38.3092V28.1092L80.9243 27.5092C83.5243 27.0092 83.9243 26.5092 83.9243 23.5092C83.9243 19.9092 81.1243 16.8092 77.9243 17.0092C76.6243 17.0092 76.6243 17.1092 77.9243 17.6092Z" fill="black"/>
</svg>
