<svg width="201" height="206" viewBox="0 0 201 206" fill="none" xmlns="http://www.w3.org/2000/svg">
<!-- <path d="M193.27 96.6944C193.27 150.097 150.005 193.389 96.6348 193.389C43.2649 193.389 0 150.097 0 96.6944C0 43.2915 43.2649 0 96.6348 0C150.005 0 193.27 43.2915 193.27 96.6944Z" fill="#FEE7EF"/> -->
<!-- <path d="M169.764 159.415C160.493 148.864 150.357 138.6 137.511 132.93C124.666 127.26 110.739 124.459 96.7019 124.722C82.6643 124.984 68.8526 128.305 56.2279 134.452C43.6032 140.599 32.4687 149.425 23.5993 160.315L56.2279 186.855L66.5996 190.775L77.0466 192.082L88.7995 193.389H100.552L114.917 192.082L121.446 190.775L131.893 186.855L141.035 182.935L150.176 177.709L159.317 171.175L164.54 165.948L169.764 159.415Z" fill="#FAA0BF"/> -->
<path d="M109.433 13.3283C141.296 17.5097 169.764 37.1099 182.823 64.0275C188.046 75.0036 192.486 81.0142 192.486 103.228C191.964 126.748 188.046 130.668 182.823 145.042C163.234 185.287 124.581 202.274 79.9197 192.082C44.9222 184.503 22.9835 164.119 12.7977 130.146C6.00715 107.671 7.31302 87.0251 16.7153 66.1182C20.3718 58.5394 22.7224 52.2674 21.9388 52.2674C21.1553 52.2674 16.9765 60.1075 12.2753 69.7769C5.4848 84.4117 4.17892 90.9451 4.17892 105.841C3.91775 169.085 48.5787 210.114 113.089 205.672C148.609 203.32 177.338 183.197 192.486 149.484C200.844 131.714 203.456 101.399 198.493 81.0144C194.314 63.5048 178.383 39.9846 163.235 29.0085C149.392 19.0777 121.185 10.1923 104.47 10.7149C93.762 10.9763 94.0232 11.2376 109.433 13.3283Z" fill="black"/>
<!-- <path d="M135.811 78.4008C135.811 100.051 118.271 117.601 96.6348 117.601C74.9983 117.601 57.4585 100.051 57.4585 78.4008C57.4585 56.751 74.9983 39.2004 96.6348 39.2004C118.271 39.2004 135.811 56.751 135.811 78.4008Z" fill="#FAA0BF"/> -->
</svg>
