<svg width="44" height="82" viewBox="0 0 44 82" fill="none" xmlns="http://www.w3.org/2000/svg">
<path fill-rule="evenodd" clip-rule="evenodd" d="M42.8431 0.918087C42.5529 0.627066 42.208 0.396173 41.8284 0.238633C41.4487 0.0810928 41.0417 0 40.6306 0C40.2196 0 39.8126 0.0810928 39.4329 0.238633C39.0533 0.396173 38.7084 0.627066 38.4181 0.918087L0.918144 38.4181C0.627125 38.7084 0.396233 39.0532 0.238693 39.4329C0.0811539 39.8125 6.10352e-05 40.2195 6.10352e-05 40.6306C6.10352e-05 41.0416 0.0811539 41.4486 0.238693 41.8283C0.396233 42.208 0.627125 42.5528 0.918144 42.8431L38.4181 80.3431C39.0049 80.9299 39.8008 81.2595 40.6306 81.2595C41.4605 81.2595 42.2564 80.9299 42.8431 80.3431C43.4299 79.7563 43.7596 78.9604 43.7596 78.1306C43.7596 77.3007 43.4299 76.5049 42.8431 75.9181L7.54939 40.6306L42.8431 5.34309C43.1342 5.0528 43.3651 4.70795 43.5226 4.3283C43.6801 3.94864 43.7612 3.54163 43.7612 3.13059C43.7612 2.71954 43.6801 2.31253 43.5226 1.93288C43.3651 1.55322 43.1342 1.20837 42.8431 0.918087Z" fill="#C20E4D"/>
</svg>
