<svg width="365" height="172" viewBox="0 0 365 172" fill="none" xmlns="http://www.w3.org/2000/svg">
<path d="M89.5 2.50018L6.5 112C6.5 120 11.5 124 14 125C56.4 123.4 71.6667 124.334 74 125C70 139.8 66.3333 158.167 65 165.5C74.6 170.7 82.3333 170.334 85 169.5C85.4 154.3 87.5 133.5 88.5 125L115.5 126C121.5 118.4 120.667 111.167 119.5 108.5L92 110L105.5 49.5002L119.5 12.5002C109.9 -0.299819 95.5 0.50018 89.5 2.50018Z" fill="#C20E4D"/>
<path d="M232 102C249.6 22.0002 214 3.33353 194 4.0002C163.6 6.8002 145.667 47.8335 140.5 68.0002C118.5 150.4 155.667 171 177 171C207 169.8 226.167 124.5 232 102Z" fill="#C20E4D"/>
<path d="M334 2.50001L251 112C251 120 256 124 258.5 125C300.9 123.4 316.167 124.333 318.5 125C314.5 139.8 310.833 158.167 309.5 165.5C319.1 170.7 326.833 170.333 329.5 169.5C329.9 154.3 332 133.5 333 125L360 126C366 118.4 365.167 111.167 364 108.5L336.5 110L350 49.5L364 12.5C354.4 -0.299987 340 0.500013 334 2.50001Z" fill="#C20E4D"/>
<path d="M78 110C65.6 110.066 35.6667 111.361 23 112C47 80.0002 79.5 38.0002 99.5 14.0002C101.9 14.0002 101.833 15.0002 102 15.5002C88 58.3002 80.1667 96.3335 78 110Z" fill="#FDD0DF"/>
<path d="M216.5 30.5002C226.1 109.3 194.167 150.334 177 161C171.333 160 158.7 155.4 153.5 145C148.167 113.167 148.8 42.4002 194 14.0002C206.4 17.6002 214.167 26.5002 216.5 30.5002Z" fill="#FDD0DF"/>
<path d="M322.5 110C310.1 110.065 280.167 111.361 267.5 112C291.5 80 324 38 344 14C346.4 14 346.333 15 346.5 15.5C332.5 58.3 324.667 96.3334 322.5 110Z" fill="#FDD0DF"/>
<path d="M329 1.00015L244.5 112.5C244.5 120.5 249.5 124.645 252 125.645C294.4 124.045 309.667 124.979 312 125.645C308 140.445 304.333 158.667 303 166C312.6 171.2 321 171 326 169.5C326.4 154.3 328.5 134.145 329.5 125.645L356 127C362 119.4 361.667 110.812 360.5 108.145L333 109.645L357.5 109.145C358.667 111.812 359.5 118 354 125.645L326.5 124C325.5 132.5 323.4 153.3 323 168.5C320.333 169.333 315.6 170.2 306 165C307.333 157.667 311 139.445 315 124.645C312.667 123.979 297.4 123.045 255 124.645C252.5 123.645 247.5 119.5 247.5 111.5L329.5 3.50015C335.5 1.50015 347.9 0.34546 357.5 13.1455L346.5 49.1455L360.5 12.1455C350.9 -0.65454 335 -0.999849 329 1.00015Z" fill="black"/>
<path d="M84.5 1.00014L0 112.5C0 120.5 5 124.645 7.5 125.645C49.9 124.045 65.1667 124.979 67.5 125.645C63.5 140.445 59.8333 158.667 58.5 166C68.1 171.2 76.5 171 81.5 169.5C81.9 154.3 84 134.145 85 125.645L111.5 127C117.5 119.4 117.167 110.812 116 108.145L88.5 109.645L113 109.145C114.167 111.812 115 118 109.5 125.645L82 124C81 132.5 78.9 153.3 78.5 168.5C75.8333 169.333 71.1 170.2 61.5 165C62.8333 157.667 66.5 139.445 70.5 124.645C68.1667 123.979 52.9 123.045 10.5 124.645C8 123.645 3 119.5 3 111.5L85 3.50014C91 1.50014 103.4 0.345437 113 13.1454L102 49.1455L116 12.1454C106.4 -0.654563 90.5 -0.999857 84.5 1.00014Z" fill="black"/>
<path d="M228.5 101.646C246.1 21.6456 208 5.00014 189 5.50014C158.6 8.30014 142.167 47.4789 137 67.6456C115 150.046 152.167 170.645 173.5 170.645C176.93 170.508 180.218 169.795 183.36 168.605C187.588 166.74 192.436 163.854 197.47 159.5C193.158 163.501 188.45 166.678 183.36 168.605C177.489 171.194 172.814 171.811 170.5 171.645C149.167 171.645 112 151.046 134 68.6456C139.167 48.4789 157.5 6.50014 190 3.50014C211 3.50014 246.1 21.6456 228.5 101.646Z" fill="black"/>
</svg>
